<svg display="none" xmlns="http://www.w3.org/2000/svg">

    <symbol id="tel-1" viewBox="0 0 29 29" xmlns="http://www.w3.org/2000/svg">
        <g clip-path="url(#clip0)">
            <path d="M12.7076 8.52434C12.8009 9.23387 12.9749 9.93372 13.2243 10.6026C13.5017 11.345 13.3229 12.1889 12.7647 12.7549L12.0431 13.4784C13.0315 15.1029 14.3949 16.4692 16.016 17.4605L16.7391 16.736C17.3026 16.1783 18.1456 15.998 18.886 16.2768C19.5554 16.5272 20.2534 16.7017 20.9658 16.7954C21.973 16.938 22.7396 17.808 22.7159 18.8292L22.7159 21.1622C22.7159 21.2231 22.713 21.284 22.7072 21.3439C22.6589 21.8862 22.4017 22.3768 21.9846 22.7258C21.5666 23.0748 21.0383 23.24 20.4892 23.1903C18.0267 22.9283 15.6264 22.0767 13.5516 20.7301C11.6294 19.5064 9.96766 17.8418 8.74826 15.9191C7.40753 13.8471 6.55731 11.4536 6.29003 8.98766C6.28425 8.92484 6.28181 8.86197 6.28181 8.79723C6.28374 8.25253 6.49739 7.74164 6.88452 7.3579C7.27024 6.97416 7.78255 6.76437 8.32436 6.7663L10.6472 6.7663C11.6781 6.74381 12.5631 7.49684 12.7076 8.52434ZM10.6515 7.73218L8.32142 7.73218C8.03624 7.73121 7.76754 7.84144 7.56454 8.04296C7.36154 8.24449 7.24939 8.51324 7.24843 8.79791C7.24843 8.83269 7.2499 8.86752 7.25183 8.89267C7.50172 11.1991 8.30018 13.4466 9.56212 15.3968C10.7081 17.204 12.2673 18.7661 14.0735 19.9164C16.0252 21.1832 18.2784 21.9826 20.5829 22.2282C20.8672 22.2543 21.1446 22.1673 21.3635 21.9841C21.5829 21.8004 21.7178 21.5424 21.7434 21.2562C21.7463 21.2248 21.7482 21.1934 21.7482 21.162L21.7482 18.8241C21.7482 18.8212 21.7482 18.8173 21.7482 18.814C21.7482 18.2823 21.3548 17.827 20.8328 17.7521C20.0527 17.6491 19.2832 17.4573 18.5447 17.1808C18.1556 17.0348 17.7134 17.1291 17.42 17.42L16.434 18.4075C16.2803 18.5622 16.042 18.5941 15.8526 18.4863C13.8346 17.3364 12.1618 15.6603 11.0149 13.639C10.9081 13.45 10.9395 13.2127 11.0932 13.059L12.0768 12.073C12.3692 11.7763 12.4649 11.333 12.317 10.9405C12.042 10.2025 11.8505 9.4316 11.7481 8.65394C11.6722 8.11501 11.2058 7.7187 10.663 7.73223C10.6597 7.73218 10.6554 7.73218 10.6515 7.73218Z"/>
            <path d="M14.4999 0.000732422C22.4951 0.000732422 28.9998 6.50538 28.9998 14.5006C28.9998 17.2657 28.2197 19.9462 26.7412 22.2705L28.9703 28.3508C29.0346 28.5248 28.993 28.7205 28.8635 28.8535C28.7707 28.9492 28.645 29.0004 28.5165 29.0004C28.4652 29.0004 28.4135 28.9922 28.3637 28.9758L22.0567 26.8738C19.7822 28.2653 17.1747 29.0005 14.4999 29.0005C6.5047 29.0005 5.53131e-05 22.4958 5.53131e-05 14.5006C5.53131e-05 6.50544 6.50476 0.000732422 14.4999 0.000732422ZM14.4995 28.0337C17.0679 28.0337 19.5701 27.3078 21.7349 25.9346C21.8132 25.8854 21.9031 25.8597 21.994 25.8597C22.0457 25.8597 22.0969 25.8679 22.1467 25.8849L27.7171 27.7413L25.7499 22.3764C25.6973 22.2324 25.7156 22.0719 25.8002 21.9438C27.2608 19.7317 28.0326 17.1579 28.0326 14.5006C28.0326 7.03853 21.9616 0.967463 14.4995 0.967463C7.0374 0.967463 0.966333 7.03853 0.966333 14.5006C0.966333 21.9627 7.0374 28.0337 14.4995 28.0337Z"/>
        </g>
        <defs>
            <clipPath id="clip0">
                <rect width="29" height="29" transform="matrix(-1 0 0 1 29 0)"/>
            </clipPath>
        </defs>
    </symbol>

    <symbol id="adv-1" viewBox="0 0 72 72" fill="none" xmlns="http://www.w3.org/2000/svg">
        <g clip-path="url(#clip0)">
            <path d="M61.1766 24.0599C61.1759 24.0599 61.175 24.0599 61.1742 24.0599H1.03086C0.462202 24.0593 0.000602022 24.5197 5.88585e-07 25.0884C5.88585e-07 25.0891 5.88585e-07 25.09 5.88585e-07 25.0908V53.9596C-0.000600845 54.5283 0.459796 54.9899 1.02845 54.9905C1.0292 54.9905 1.03011 54.9905 1.03086 54.9905H41.9283C42.4976 54.9905 42.9592 54.5289 42.9592 53.9596C42.9592 53.3903 42.4976 52.9287 41.9283 52.9287H2.06171V26.1217H60.1433V28.6994C60.1427 29.2681 60.6031 29.7297 61.1718 29.7303C61.1725 29.7303 61.1735 29.7303 61.1742 29.7303C61.7429 29.7309 62.2045 29.2705 62.2051 28.7018C62.2051 28.7011 62.2051 28.7001 62.2051 28.6994V25.0908C62.2057 24.5221 61.7453 24.0607 61.1766 24.0599Z"
                  fill="#F34429"/>
            <path d="M61.1766 24.0599C61.1759 24.0599 61.175 24.0599 61.1742 24.0599H1.03086C0.462202 24.0593 0.000602022 24.5197 5.88585e-07 25.0884C5.88585e-07 25.0891 5.88585e-07 25.09 5.88585e-07 25.0908V53.9596C-0.000600845 54.5283 0.459796 54.9899 1.02845 54.9905C1.0292 54.9905 1.03011 54.9905 1.03086 54.9905H41.9283C42.4976 54.9905 42.9592 54.5289 42.9592 53.9596C42.9592 53.3903 42.4976 52.9287 41.9283 52.9287H2.06171V26.1217H60.1433V28.6994C60.1427 29.2681 60.6031 29.7297 61.1718 29.7303C61.1725 29.7303 61.1735 29.7303 61.1742 29.7303C61.7429 29.7309 62.2045 29.2705 62.2051 28.7018C62.2051 28.7011 62.2051 28.7001 62.2051 28.6994V25.0908C62.2057 24.5221 61.7453 24.0607 61.1766 24.0599Z"
                  fill="#F34429"/>
            <path d="M54.1832 19.2737L6.06849 8.44792C5.80145 8.38823 5.52164 8.43664 5.29024 8.58264C5.05913 8.72984 4.8957 8.96244 4.83555 9.22978L2.42982 20.0556C2.30622 20.6116 2.65686 21.1625 3.21288 21.2861C3.76891 21.4097 4.31982 21.0591 4.44342 20.503L6.62422 10.6865L53.7309 21.2849C53.8055 21.3022 53.8817 21.3108 53.9582 21.3102C54.5275 21.3091 54.9882 20.8468 54.9873 20.2775C54.9864 19.7962 54.6526 19.3797 54.1832 19.2737Z"
                  fill="#F34429"/>
            <path d="M54.1832 19.2737L6.06849 8.44792C5.80145 8.38823 5.52164 8.43664 5.29024 8.58264C5.05913 8.72984 4.8957 8.96244 4.83555 9.22978L2.42982 20.0556C2.30622 20.6116 2.65686 21.1625 3.21288 21.2861C3.76891 21.4097 4.31982 21.0591 4.44342 20.503L6.62422 10.6865L53.7309 21.2849C53.8055 21.3022 53.8817 21.3108 53.9582 21.3102C54.5275 21.3091 54.9882 20.8468 54.9873 20.2775C54.9864 19.7962 54.6526 19.3797 54.1832 19.2737Z"
                  fill="#F34429"/>
            <path d="M48.3408 13.3087L19.472 1.28003C18.9703 1.07088 18.3922 1.28574 18.1489 1.772L15.7432 6.58347C15.4715 7.08596 15.6585 7.71371 16.1612 7.98541C16.6637 8.25711 17.2914 8.07006 17.5631 7.56741C17.5738 7.54771 17.5838 7.52757 17.5932 7.50712V7.50952L19.5671 3.55931L47.5445 15.2163C48.0714 15.4361 48.6767 15.1874 48.8966 14.6606C49.1164 14.134 48.8677 13.5287 48.3408 13.3087Z"
                  fill="#F34429"/>
            <path d="M48.3408 13.3087L19.472 1.28003C18.9703 1.07088 18.3922 1.28574 18.1489 1.772L15.7432 6.58347C15.4715 7.08596 15.6585 7.71371 16.1612 7.98541C16.6637 8.25711 17.2914 8.07006 17.5631 7.56741C17.5738 7.54771 17.5838 7.52757 17.5932 7.50712V7.50952L19.5671 3.55931L47.5445 15.2163C48.0714 15.4361 48.6767 15.1874 48.8966 14.6606C49.1164 14.134 48.8677 13.5287 48.3408 13.3087Z"
                  fill="#F34429"/>
            <path d="M49.0698 28.8713H39.5226C38.9534 28.8713 38.4918 29.3329 38.4918 29.9022C38.4918 30.4715 38.9534 30.9331 39.5226 30.9331H49.0698C49.639 30.9331 50.1006 30.4715 50.1006 29.9022C50.1006 29.3329 49.639 28.8713 49.0698 28.8713Z"
                  fill="#F34429"/>
            <path d="M49.0698 28.8713H39.5226C38.9534 28.8713 38.4918 29.3329 38.4918 29.9022C38.4918 30.4715 38.9534 30.9331 39.5226 30.9331H49.0698C49.639 30.9331 50.1006 30.4715 50.1006 29.9022C50.1006 29.3329 49.639 28.8713 49.0698 28.8713Z"
                  fill="#F34429"/>
            <path d="M29.8997 28.9399C24.0536 28.9399 19.3145 33.6791 19.3145 39.5252C19.3205 45.3687 24.0562 50.1044 29.8997 50.1104C35.7458 50.1104 40.4849 45.3712 40.4849 39.5252C40.4849 33.6791 35.7458 28.9399 29.8997 28.9399ZM29.8997 48.1858C25.1165 48.1858 21.239 44.3084 21.239 39.5252C21.2443 34.7442 25.1187 30.8698 29.8997 30.8645C34.6829 30.8645 38.5603 34.742 38.5603 39.5252C38.5603 44.3084 34.6829 48.1858 29.8997 48.1858Z"
                  fill="#F34429"/>
            <path d="M29.8997 28.9399C24.0536 28.9399 19.3145 33.6791 19.3145 39.5252C19.3205 45.3687 24.0562 50.1044 29.8997 50.1104C35.7458 50.1104 40.4849 45.3712 40.4849 39.5252C40.4849 33.6791 35.7458 28.9399 29.8997 28.9399ZM29.8997 48.1858C25.1165 48.1858 21.239 44.3084 21.239 39.5252C21.2443 34.7442 25.1187 30.8698 29.8997 30.8645C34.6829 30.8645 38.5603 34.742 38.5603 39.5252C38.5603 44.3084 34.6829 48.1858 29.8997 48.1858Z"
                  fill="#F34429"/>
            <path d="M58.7685 32.308C52.3933 32.308 45.5369 33.814 45.5369 37.1194V65.9882C45.5369 69.2937 52.3933 70.7997 58.7685 70.7997C65.1437 70.7997 72 69.2937 72 65.9882V37.1194C72 33.814 65.1437 32.308 58.7685 32.308ZM69.5943 65.9702C69.4126 66.6378 65.8052 68.394 58.7685 68.394C51.7317 68.394 48.1243 66.6378 47.9427 65.9882V64.0973C50.5024 65.3868 54.7304 65.9882 58.7685 65.9882C62.8065 65.9882 67.0358 65.3808 69.5943 64.0961V65.9702ZM69.5943 61.1587C69.4126 61.8263 65.8052 63.5825 58.7685 63.5825C51.7317 63.5825 48.1243 61.8263 47.9427 61.1768V59.2859C50.5024 60.5753 54.7304 61.1768 58.7685 61.1768C62.8065 61.1768 67.0358 60.5693 69.5943 59.2847V61.1587ZM69.5943 56.3473C69.4126 57.0149 65.8052 58.771 58.7685 58.771C51.7317 58.771 48.1243 57.0149 47.9427 56.3653V54.4744C50.5024 55.7639 54.7304 56.3653 58.7685 56.3653C62.8065 56.3653 67.0358 55.7579 69.5943 54.4732V56.3473ZM69.5943 51.5358C69.4126 52.2034 65.8052 53.9596 58.7685 53.9596C51.7317 53.9596 48.1243 52.2034 47.9427 51.5538V49.6629C50.5024 50.9524 54.7304 51.5538 58.7685 51.5538C62.8065 51.5538 67.0358 50.9464 69.5943 49.6617V51.5358ZM69.5943 46.7243C69.4126 47.3919 65.8052 49.1481 58.7685 49.1481C51.7317 49.1481 48.1243 47.3919 47.9427 46.7424V44.8515C50.5024 46.1349 54.7304 46.7424 58.7685 46.7424C62.8065 46.7424 67.0358 46.1349 69.5943 44.8503V46.7243ZM69.5943 41.9129C69.4126 42.5805 65.8052 44.3366 58.7685 44.3366C51.7317 44.3366 48.1243 42.5805 47.9427 41.9309V40.04C50.5024 41.3235 54.7304 41.9309 58.7685 41.9309C62.8065 41.9309 67.0358 41.3235 69.5943 40.0388V41.9129ZM58.7685 39.5252C51.7425 39.5252 48.1363 37.7738 47.9427 37.1411V37.1339C48.1363 36.4639 51.7425 34.7137 58.7685 34.7137C65.7451 34.7137 69.3537 36.4386 69.5943 37.1194C69.3537 37.8003 65.7451 39.5252 58.7685 39.5252Z"
                  fill="#F34429"/>
            <path d="M58.7685 32.308C52.3933 32.308 45.5369 33.814 45.5369 37.1194V65.9882C45.5369 69.2937 52.3933 70.7997 58.7685 70.7997C65.1437 70.7997 72 69.2937 72 65.9882V37.1194C72 33.814 65.1437 32.308 58.7685 32.308ZM69.5943 65.9702C69.4126 66.6378 65.8052 68.394 58.7685 68.394C51.7317 68.394 48.1243 66.6378 47.9427 65.9882V64.0973C50.5024 65.3868 54.7304 65.9882 58.7685 65.9882C62.8065 65.9882 67.0358 65.3808 69.5943 64.0961V65.9702ZM69.5943 61.1587C69.4126 61.8263 65.8052 63.5825 58.7685 63.5825C51.7317 63.5825 48.1243 61.8263 47.9427 61.1768V59.2859C50.5024 60.5753 54.7304 61.1768 58.7685 61.1768C62.8065 61.1768 67.0358 60.5693 69.5943 59.2847V61.1587ZM69.5943 56.3473C69.4126 57.0149 65.8052 58.771 58.7685 58.771C51.7317 58.771 48.1243 57.0149 47.9427 56.3653V54.4744C50.5024 55.7639 54.7304 56.3653 58.7685 56.3653C62.8065 56.3653 67.0358 55.7579 69.5943 54.4732V56.3473ZM69.5943 51.5358C69.4126 52.2034 65.8052 53.9596 58.7685 53.9596C51.7317 53.9596 48.1243 52.2034 47.9427 51.5538V49.6629C50.5024 50.9524 54.7304 51.5538 58.7685 51.5538C62.8065 51.5538 67.0358 50.9464 69.5943 49.6617V51.5358ZM69.5943 46.7243C69.4126 47.3919 65.8052 49.1481 58.7685 49.1481C51.7317 49.1481 48.1243 47.3919 47.9427 46.7424V44.8515C50.5024 46.1349 54.7304 46.7424 58.7685 46.7424C62.8065 46.7424 67.0358 46.1349 69.5943 44.8503V46.7243ZM69.5943 41.9129C69.4126 42.5805 65.8052 44.3366 58.7685 44.3366C51.7317 44.3366 48.1243 42.5805 47.9427 41.9309V40.04C50.5024 41.3235 54.7304 41.9309 58.7685 41.9309C62.8065 41.9309 67.0358 41.3235 69.5943 40.0388V41.9129ZM58.7685 39.5252C51.7425 39.5252 48.1363 37.7738 47.9427 37.1411V37.1339C48.1363 36.4639 51.7425 34.7137 58.7685 34.7137C65.7451 34.7137 69.3537 36.4386 69.5943 37.1194C69.3537 37.8003 65.7451 39.5252 58.7685 39.5252Z"
                  fill="#F34429"/>
            <path d="M20.2767 48.116H11.1842L6.87316 43.4008V35.5821L11.6341 30.9331H20.2767C20.846 30.9331 21.3076 30.4715 21.3076 29.9022C21.3076 29.3329 20.846 28.8713 20.2767 28.8713H11.2155C10.9461 28.8707 10.687 28.9757 10.4938 29.1636L5.12058 34.4045C4.91985 34.6391 4.80979 34.9378 4.81024 35.2465V43.8013C4.81024 44.0586 4.90632 44.3065 5.07969 44.4966L9.96693 49.8421C10.1622 50.0559 10.4386 50.1779 10.7283 50.1777H20.2767C20.846 50.1777 21.3076 49.7161 21.3076 49.1469C21.3076 48.5776 20.8461 48.116 20.2767 48.116Z"
                  fill="#F34429"/>
            <path d="M20.2767 48.116H11.1842L6.87316 43.4008V35.5821L11.6341 30.9331H20.2767C20.846 30.9331 21.3076 30.4715 21.3076 29.9022C21.3076 29.3329 20.846 28.8713 20.2767 28.8713H11.2155C10.9461 28.8707 10.687 28.9757 10.4938 29.1636L5.12058 34.4045C4.91985 34.6391 4.80979 34.9378 4.81024 35.2465V43.8013C4.81024 44.0586 4.90632 44.3065 5.07969 44.4966L9.96693 49.8421C10.1622 50.0559 10.4386 50.1779 10.7283 50.1777H20.2767C20.846 50.1777 21.3076 49.7161 21.3076 49.1469C21.3076 48.5776 20.8461 48.116 20.2767 48.116Z"
                  fill="#F34429"/>
        </g>
    </symbol>

    <symbol id="adv-2" viewBox="0 0 72 72" fill="none" xmlns="http://www.w3.org/2000/svg">
        <path d="M24 51.6H21.6C20.9373 51.6 20.4 52.1373 20.4 52.8C20.4 53.4627 20.9373 54 21.6 54H24C24.6627 54 25.2 53.4627 25.2 52.8C25.2 52.1373 24.6627 51.6 24 51.6Z"
              fill="#F34429"/>
        <path d="M24 51.6H21.6C20.9373 51.6 20.4 52.1373 20.4 52.8C20.4 53.4627 20.9373 54 21.6 54H24C24.6627 54 25.2 53.4627 25.2 52.8C25.2 52.1373 24.6627 51.6 24 51.6Z"
              fill="#F34429"/>
        <path d="M57.6 51.6H28.8C28.1373 51.6 27.6 52.1373 27.6 52.8C27.6 53.4627 28.1373 54 28.8 54H57.6C58.2627 54 58.8 53.4627 58.8 52.8C58.8 52.1373 58.2627 51.6 57.6 51.6Z"
              fill="#F34429"/>
        <path d="M57.6 51.6H28.8C28.1373 51.6 27.6 52.1373 27.6 52.8C27.6 53.4627 28.1373 54 28.8 54H57.6C58.2627 54 58.8 53.4627 58.8 52.8C58.8 52.1373 58.2627 51.6 57.6 51.6Z"
              fill="#F34429"/>
        <path d="M24 44.4H21.6C20.9373 44.4 20.4 44.9373 20.4 45.6C20.4 46.2627 20.9373 46.8 21.6 46.8H24C24.6627 46.8 25.2 46.2627 25.2 45.6C25.2 44.9373 24.6627 44.4 24 44.4Z"
              fill="#F34429"/>
        <path d="M24 44.4H21.6C20.9373 44.4 20.4 44.9373 20.4 45.6C20.4 46.2627 20.9373 46.8 21.6 46.8H24C24.6627 46.8 25.2 46.2627 25.2 45.6C25.2 44.9373 24.6627 44.4 24 44.4Z"
              fill="#F34429"/>
        <path d="M57.6 44.4H28.8C28.1373 44.4 27.6 44.9373 27.6 45.6C27.6 46.2627 28.1373 46.8 28.8 46.8H57.6C58.2627 46.8 58.8 46.2627 58.8 45.6C58.8 44.9373 58.2627 44.4 57.6 44.4Z"
              fill="#F34429"/>
        <path d="M57.6 44.4H28.8C28.1373 44.4 27.6 44.9373 27.6 45.6C27.6 46.2627 28.1373 46.8 28.8 46.8H57.6C58.2627 46.8 58.8 46.2627 58.8 45.6C58.8 44.9373 58.2627 44.4 57.6 44.4Z"
              fill="#F34429"/>
        <path d="M24 37.2H21.6C20.9373 37.2 20.4 37.7373 20.4 38.4C20.4 39.0627 20.9373 39.6 21.6 39.6H24C24.6627 39.6 25.2 39.0627 25.2 38.4C25.2 37.7373 24.6627 37.2 24 37.2Z"
              fill="#F34429"/>
        <path d="M24 37.2H21.6C20.9373 37.2 20.4 37.7373 20.4 38.4C20.4 39.0627 20.9373 39.6 21.6 39.6H24C24.6627 39.6 25.2 39.0627 25.2 38.4C25.2 37.7373 24.6627 37.2 24 37.2Z"
              fill="#F34429"/>
        <path d="M57.6 37.2H28.8C28.1373 37.2 27.6 37.7373 27.6 38.4C27.6 39.0627 28.1373 39.6 28.8 39.6H57.6C58.2627 39.6 58.8 39.0627 58.8 38.4C58.8 37.7373 58.2627 37.2 57.6 37.2Z"
              fill="#F34429"/>
        <path d="M57.6 37.2H28.8C28.1373 37.2 27.6 37.7373 27.6 38.4C27.6 39.0627 28.1373 39.6 28.8 39.6H57.6C58.2627 39.6 58.8 39.0627 58.8 38.4C58.8 37.7373 58.2627 37.2 57.6 37.2Z"
              fill="#F34429"/>
        <path d="M24 30H21.6C20.9373 30 20.4 30.5373 20.4 31.2C20.4 31.8627 20.9373 32.4 21.6 32.4H24C24.6627 32.4 25.2 31.8627 25.2 31.2C25.2 30.5373 24.6627 30 24 30Z"
              fill="#F34429"/>
        <path d="M24 30H21.6C20.9373 30 20.4 30.5373 20.4 31.2C20.4 31.8627 20.9373 32.4 21.6 32.4H24C24.6627 32.4 25.2 31.8627 25.2 31.2C25.2 30.5373 24.6627 30 24 30Z"
              fill="#F34429"/>
        <path d="M57.6 30H28.8C28.1373 30 27.6 30.5373 27.6 31.2C27.6 31.8627 28.1373 32.4 28.8 32.4H57.6C58.2627 32.4 58.8 31.8627 58.8 31.2C58.8 30.5373 58.2627 30 57.6 30Z"
              fill="#F34429"/>
        <path d="M57.6 30H28.8C28.1373 30 27.6 30.5373 27.6 31.2C27.6 31.8627 28.1373 32.4 28.8 32.4H57.6C58.2627 32.4 58.8 31.8627 58.8 31.2C58.8 30.5373 58.2627 30 57.6 30Z"
              fill="#F34429"/>
        <path d="M24 22.8H21.6C20.9373 22.8 20.4 23.3373 20.4 24C20.4 24.6627 20.9373 25.2 21.6 25.2H24C24.6627 25.2 25.2 24.6627 25.2 24C25.2 23.3373 24.6627 22.8 24 22.8Z"
              fill="#F34429"/>
        <path d="M24 22.8H21.6C20.9373 22.8 20.4 23.3373 20.4 24C20.4 24.6627 20.9373 25.2 21.6 25.2H24C24.6627 25.2 25.2 24.6627 25.2 24C25.2 23.3373 24.6627 22.8 24 22.8Z"
              fill="#F34429"/>
        <path d="M57.6 22.8H28.8C28.1373 22.8 27.6 23.3373 27.6 24C27.6 24.6627 28.1373 25.2 28.8 25.2H57.6C58.2627 25.2 58.8 24.6627 58.8 24C58.8 23.3373 58.2627 22.8 57.6 22.8Z"
              fill="#F34429"/>
        <path d="M57.6 22.8H28.8C28.1373 22.8 27.6 23.3373 27.6 24C27.6 24.6627 28.1373 25.2 28.8 25.2H57.6C58.2627 25.2 58.8 24.6627 58.8 24C58.8 23.3373 58.2627 22.8 57.6 22.8Z"
              fill="#F34429"/>
        <path d="M65.9844 17.9244C65.9784 17.8193 65.9579 17.7155 65.9232 17.616C65.91 17.5776 65.9004 17.5404 65.8836 17.5032C65.8253 17.3727 65.7439 17.2536 65.6436 17.1516L48.8436 0.3516C48.7416 0.25125 48.6225 0.16995 48.492 0.1116C48.4548 0.0948 48.4176 0.0852 48.3804 0.072C48.2801 0.0375 48.1755 0.0165 48.0696 0.0096C48.0492 0.0132 48.0264 0 48 0H14.4C13.7373 0 13.2 0.5373 13.2 1.2V4.8H7.2C6.5373 4.8 6 5.3373 6 6V70.8C6 71.4627 6.5373 72 7.2 72H57.6C58.2627 72 58.8 71.4627 58.8 70.8V64.8H64.8C65.4627 64.8 66 64.2627 66 63.6V18C66 17.9736 65.9868 17.9508 65.9844 17.9244ZM49.2 4.0968L61.9032 16.8H49.2V4.0968ZM56.4 69.6H8.4V7.2H13.2V63.6C13.2 64.2627 13.7373 64.8 14.4 64.8H56.4V69.6ZM63.6 62.4H15.6V2.4H46.8V18C46.8 18.6627 47.3373 19.2 48 19.2H63.6V62.4Z"
              fill="#F34429"/>
        <path d="M65.9844 17.9244C65.9784 17.8193 65.9579 17.7155 65.9232 17.616C65.91 17.5776 65.9004 17.5404 65.8836 17.5032C65.8253 17.3727 65.7439 17.2536 65.6436 17.1516L48.8436 0.3516C48.7416 0.25125 48.6225 0.16995 48.492 0.1116C48.4548 0.0948 48.4176 0.0852 48.3804 0.072C48.2801 0.0375 48.1755 0.0165 48.0696 0.0096C48.0492 0.0132 48.0264 0 48 0H14.4C13.7373 0 13.2 0.5373 13.2 1.2V4.8H7.2C6.5373 4.8 6 5.3373 6 6V70.8C6 71.4627 6.5373 72 7.2 72H57.6C58.2627 72 58.8 71.4627 58.8 70.8V64.8H64.8C65.4627 64.8 66 64.2627 66 63.6V18C66 17.9736 65.9868 17.9508 65.9844 17.9244ZM49.2 4.0968L61.9032 16.8H49.2V4.0968ZM56.4 69.6H8.4V7.2H13.2V63.6C13.2 64.2627 13.7373 64.8 14.4 64.8H56.4V69.6ZM63.6 62.4H15.6V2.4H46.8V18C46.8 18.6627 47.3373 19.2 48 19.2H63.6V62.4Z"
              fill="#F34429"/>
        <path d="M28.8 10.8H21.6C20.9373 10.8 20.4 11.3373 20.4 12V19.2C20.4 19.8627 20.9373 20.4 21.6 20.4H28.8C29.4627 20.4 30 19.8627 30 19.2V12C30 11.3373 29.4627 10.8 28.8 10.8ZM27.6 18H22.8V13.2H27.6V18Z"
              fill="#F34429"/>
        <path d="M28.8 10.8H21.6C20.9373 10.8 20.4 11.3373 20.4 12V19.2C20.4 19.8627 20.9373 20.4 21.6 20.4H28.8C29.4627 20.4 30 19.8627 30 19.2V12C30 11.3373 29.4627 10.8 28.8 10.8ZM27.6 18H22.8V13.2H27.6V18Z"
              fill="#F34429"/>
    </symbol>

    <symbol id="adv-3" viewBox="0 0 72 72" fill="none" xmlns="http://www.w3.org/2000/svg">
        <path d="M65.1881 23.733C65.2275 23.3269 65.25 22.9163 65.25 22.5C65.25 16.056 60.2977 10.7527 54 10.1824V1.125H5.625C2.52338 1.125 0 3.64838 0 6.75V42.75C0 45.8516 2.52338 48.375 5.625 48.375H11.25V39.375H17.514L17.6096 39.5606C17.2013 40.3594 16.8547 41.1998 16.5758 42.0683L13.5 43.0549V51.4463L16.5758 52.4317C16.8559 53.3014 17.2013 54.1418 17.6096 54.9394L16.1336 57.8059L22.0669 63.7391L24.9345 62.2631C25.7332 62.6715 26.5736 63.018 27.4421 63.297L28.4299 66.375H36.1147C36.6379 68.9389 38.9092 70.875 41.6261 70.875H64.1261C67.2278 70.875 69.7511 68.3516 69.7511 65.25V29.25C69.75 26.5129 67.7824 24.2314 65.1881 23.733ZM63 22.5C63 28.0823 58.4572 32.625 52.875 32.625C47.2928 32.625 42.75 28.0823 42.75 22.5C42.75 16.9178 47.2928 12.375 52.875 12.375C58.4572 12.375 63 16.9178 63 22.5ZM63 30.375V37.125H42.75V30.375H43.3361C45.6075 33.1211 49.0399 34.875 52.875 34.875C56.7101 34.875 60.1414 33.1211 62.4139 30.375H63ZM9 46.125H5.625C3.76425 46.125 2.25 44.6107 2.25 42.75V11.2478C3.1905 11.9543 4.35938 12.375 5.625 12.375H9V46.125ZM29.2219 61.4745L28.6403 61.3102C27.531 60.9964 26.4724 60.5599 25.4948 60.0131L24.9683 59.7184L22.4989 60.9885L18.8865 57.3761L20.1577 54.9067L19.8619 54.3791C19.3151 53.4038 18.8786 52.3451 18.5648 51.2347L18.4005 50.6531L15.75 49.8049V44.6963L18.4005 43.8469L18.5648 43.2653C18.8786 42.156 19.3151 41.0974 19.8619 40.1197L20.1566 39.5933L20.0452 39.375H23.0737C21.2569 41.5654 20.25 44.3171 20.25 47.25C20.25 54.0731 25.8019 59.625 32.625 59.625C33.7804 59.625 34.9076 59.4551 36 59.1446V64.125H30.0701L29.2219 61.4745ZM36 56.7878C34.92 57.1702 33.7894 57.375 32.625 57.375C27.0427 57.375 22.5 52.8322 22.5 47.25C22.5 44.1529 23.8815 41.3078 26.2834 39.375H36V56.7878ZM36 29.25V37.125H11.25V10.125H5.625C3.76425 10.125 2.25 8.61075 2.25 6.75C2.25 4.88925 3.76425 3.375 5.625 3.375H51.75V10.1824C45.4523 10.7527 40.5 16.056 40.5 22.5C40.5 22.9163 40.5225 23.3269 40.5619 23.733C37.9676 24.2314 36 26.5129 36 29.25ZM67.5 65.25C67.5 67.1107 65.9857 68.625 64.125 68.625H41.625C39.7643 68.625 38.25 67.1107 38.25 65.25V29.25C38.25 27.6041 39.4358 26.235 40.9961 25.9391C41.2166 26.7007 41.5103 27.4309 41.8657 28.125H40.5V39.375H65.25V28.125H63.8843C64.2409 27.4309 64.5334 26.7007 64.7539 25.9391C66.3142 26.235 67.5 27.6041 67.5 29.25V65.25Z"
              fill="#F34429"/>
        <path d="M65.1881 23.733C65.2275 23.3269 65.25 22.9163 65.25 22.5C65.25 16.056 60.2977 10.7527 54 10.1824V1.125H5.625C2.52338 1.125 0 3.64838 0 6.75V42.75C0 45.8516 2.52338 48.375 5.625 48.375H11.25V39.375H17.514L17.6096 39.5606C17.2013 40.3594 16.8547 41.1998 16.5758 42.0683L13.5 43.0549V51.4463L16.5758 52.4317C16.8559 53.3014 17.2013 54.1418 17.6096 54.9394L16.1336 57.8059L22.0669 63.7391L24.9345 62.2631C25.7332 62.6715 26.5736 63.018 27.4421 63.297L28.4299 66.375H36.1147C36.6379 68.9389 38.9092 70.875 41.6261 70.875H64.1261C67.2278 70.875 69.7511 68.3516 69.7511 65.25V29.25C69.75 26.5129 67.7824 24.2314 65.1881 23.733ZM63 22.5C63 28.0823 58.4572 32.625 52.875 32.625C47.2928 32.625 42.75 28.0823 42.75 22.5C42.75 16.9178 47.2928 12.375 52.875 12.375C58.4572 12.375 63 16.9178 63 22.5ZM63 30.375V37.125H42.75V30.375H43.3361C45.6075 33.1211 49.0399 34.875 52.875 34.875C56.7101 34.875 60.1414 33.1211 62.4139 30.375H63ZM9 46.125H5.625C3.76425 46.125 2.25 44.6107 2.25 42.75V11.2478C3.1905 11.9543 4.35938 12.375 5.625 12.375H9V46.125ZM29.2219 61.4745L28.6403 61.3102C27.531 60.9964 26.4724 60.5599 25.4948 60.0131L24.9683 59.7184L22.4989 60.9885L18.8865 57.3761L20.1577 54.9067L19.8619 54.3791C19.3151 53.4038 18.8786 52.3451 18.5648 51.2347L18.4005 50.6531L15.75 49.8049V44.6963L18.4005 43.8469L18.5648 43.2653C18.8786 42.156 19.3151 41.0974 19.8619 40.1197L20.1566 39.5933L20.0452 39.375H23.0737C21.2569 41.5654 20.25 44.3171 20.25 47.25C20.25 54.0731 25.8019 59.625 32.625 59.625C33.7804 59.625 34.9076 59.4551 36 59.1446V64.125H30.0701L29.2219 61.4745ZM36 56.7878C34.92 57.1702 33.7894 57.375 32.625 57.375C27.0427 57.375 22.5 52.8322 22.5 47.25C22.5 44.1529 23.8815 41.3078 26.2834 39.375H36V56.7878ZM36 29.25V37.125H11.25V10.125H5.625C3.76425 10.125 2.25 8.61075 2.25 6.75C2.25 4.88925 3.76425 3.375 5.625 3.375H51.75V10.1824C45.4523 10.7527 40.5 16.056 40.5 22.5C40.5 22.9163 40.5225 23.3269 40.5619 23.733C37.9676 24.2314 36 26.5129 36 29.25ZM67.5 65.25C67.5 67.1107 65.9857 68.625 64.125 68.625H41.625C39.7643 68.625 38.25 67.1107 38.25 65.25V29.25C38.25 27.6041 39.4358 26.235 40.9961 25.9391C41.2166 26.7007 41.5103 27.4309 41.8657 28.125H40.5V39.375H65.25V28.125H63.8843C64.2409 27.4309 64.5334 26.7007 64.7539 25.9391C66.3142 26.235 67.5 27.6041 67.5 29.25V65.25Z"
              fill="#F34429"/>
        <path d="M58.5 66.375H65.25V50.625H58.5V66.375ZM60.75 52.875H63V64.125H60.75V52.875Z" fill="#F34429"/>
        <path d="M58.5 66.375H65.25V50.625H58.5V66.375ZM60.75 52.875H63V64.125H60.75V52.875Z"
              fill="#F34429"/>
        <path d="M49.5 66.375H56.25V59.625H49.5V66.375ZM51.75 61.875H54V64.125H51.75V61.875Z" fill="#F34429"/>
        <path d="M49.5 66.375H56.25V59.625H49.5V66.375ZM51.75 61.875H54V64.125H51.75V61.875Z"
              fill="#F34429"/>
        <path d="M40.5 66.375H47.25V59.625H40.5V66.375ZM42.75 61.875H45V64.125H42.75V61.875Z" fill="#F34429"/>
        <path d="M40.5 66.375H47.25V59.625H40.5V66.375ZM42.75 61.875H45V64.125H42.75V61.875Z"
              fill="#F34429"/>
        <path d="M49.5 57.375H56.25V50.625H49.5V57.375ZM51.75 52.875H54V55.125H51.75V52.875Z" fill="#F34429"/>
        <path d="M49.5 57.375H56.25V50.625H49.5V57.375ZM51.75 52.875H54V55.125H51.75V52.875Z"
              fill="#F34429"/>
        <path d="M40.5 57.375H47.25V50.625H40.5V57.375ZM42.75 52.875H45V55.125H42.75V52.875Z" fill="#F34429"/>
        <path d="M40.5 57.375H47.25V50.625H40.5V57.375ZM42.75 52.875H45V55.125H42.75V52.875Z"
              fill="#F34429"/>
        <path d="M58.5 48.375H65.25V41.625H58.5V48.375ZM60.75 43.875H63V46.125H60.75V43.875Z" fill="#F34429"/>
        <path d="M58.5 48.375H65.25V41.625H58.5V48.375ZM60.75 43.875H63V46.125H60.75V43.875Z"
              fill="#F34429"/>
        <path d="M49.5 48.375H56.25V41.625H49.5V48.375ZM51.75 43.875H54V46.125H51.75V43.875Z" fill="#F34429"/>
        <path d="M49.5 48.375H56.25V41.625H49.5V48.375ZM51.75 43.875H54V46.125H51.75V43.875Z"
              fill="#F34429"/>
        <path d="M40.5 48.375H47.25V41.625H40.5V48.375ZM42.75 43.875H45V46.125H42.75V43.875Z" fill="#F34429"/>
        <path d="M40.5 48.375H47.25V41.625H40.5V48.375ZM42.75 43.875H45V46.125H42.75V43.875Z"
              fill="#F34429"/>
        <path d="M13.5 16.875H36V5.625H13.5V16.875ZM15.75 7.875H33.75V14.625H15.75V7.875Z" fill="#F34429"/>
        <path d="M13.5 16.875H36V5.625H13.5V16.875ZM15.75 7.875H33.75V14.625H15.75V7.875Z" fill="#F34429"/>
        <path d="M13.5 19.125H33.75V21.375H13.5V19.125Z" fill="##F34429"/>
        <path d="M13.5 19.125H33.75V21.375H13.5V19.125Z" fill="#F34429"/>
        <path d="M27 23.625H29.25V25.875H27V23.625Z" fill="#F34429"/>
        <path d="M27 23.625H29.25V25.875H27V23.625Z" fill="#F34429"/>
        <path d="M31.5 23.625H33.75V25.875H31.5V23.625Z" fill="#F34429"/>
        <path d="M31.5 23.625H33.75V25.875H31.5V23.625Z" fill="#F34429"/>
        <path d="M13.5 23.625H24.75V25.875H13.5V23.625Z" fill="#F34429"/>
        <path d="M13.5 23.625H24.75V25.875H13.5V23.625Z" fill="#F34429"/>
        <path d="M13.5 28.125H33.75V30.375H13.5V28.125Z" fill="#F34429"/>
        <path d="M13.5 28.125H33.75V30.375H13.5V28.125Z" fill="#F34429"/>
        <path d="M13.5 32.625H33.75V34.875H13.5V32.625Z" fill="#F34429"/>
        <path d="M13.5 32.625H33.75V34.875H13.5V32.625Z" fill="#F34429"/>
    </symbol>

    <symbol id="adv-4" viewBox="0 0 72 72" fill="none" xmlns="http://www.w3.org/2000/svg">
        <g clip-path="url(#clip0)">
            <path d="M71.6727 19.5717C71.2509 19.17 70.5834 19.1863 70.1817 19.6082L63.3934 26.7374H62.9679C60.6159 -7.52426 11.515 -7.51062 9.1613 26.7374H8.61659L1.8283 19.6082C0.899879 18.6049 -0.657889 20.0849 0.3009 21.0627C0.300759 21.0627 6.22039 27.2794 6.22039 27.2794C5.55969 27.4318 1.99716 35.1058 1.57605 35.7239C0.629636 37.4293 2.01699 39.7036 3.96663 39.6409H28.536C28.4434 42.1875 28.2983 45.2224 31.666 45.4042C31.6659 45.4042 40.69 45.4042 40.69 45.4042C44.0524 45.2257 43.9156 42.1844 43.8198 39.6409H64.157V68.2667C64.157 68.5855 63.8972 68.8446 63.5777 68.8446C62.9983 68.2891 7.85437 69.9207 7.97529 68.2682C7.97388 68.2667 7.97388 43.5881 7.97388 43.5881C8.00791 42.2294 5.83457 42.213 5.8648 43.5882C5.8648 43.5881 5.8648 68.2667 5.8648 68.2667C5.8648 69.7483 7.07021 70.9537 8.55177 70.9537H63.5777C65.0601 70.9537 66.2661 69.7483 66.2661 68.2667V39.6409H68.0462C69.9999 39.7037 71.3881 37.4216 70.4318 35.716C70.0132 35.1026 66.4168 27.4518 65.7769 27.2929L71.7092 21.0628C72.1108 20.6409 72.0945 19.9734 71.6727 19.5717ZM15.8541 23.5804C15.2437 22.1473 12.9387 22.7258 11.776 22.7009C12.3717 19.8273 13.4926 17.064 15.0582 14.5823C15.3499 14.6779 17.9397 15.9829 18.2001 15.8998C19.2908 15.9393 19.6645 14.3091 18.6349 13.8839C18.635 13.8839 16.2766 12.8184 16.2766 12.8184C16.0671 12.3491 21.9477 10.2214 22.2034 10.0519C22.5451 9.91125 22.928 9.95568 23.2279 10.1709C23.59 10.6328 30.9772 15.1811 30.5208 15.9449C30.917 19.6521 28.5048 17.6429 25.5174 21.9292C25.1179 22.5342 23.6694 22.2291 23.0824 22.299C21.9063 22.4001 21.2626 20.9163 20.7053 20.1323C19.4456 18.1267 16.1836 19.7792 17.0847 21.9836C17.0846 21.9835 18.8745 26.7374 18.8745 26.7374H17.7932L15.8541 23.5804ZM58.182 26.7374L59.9197 20.9298C60.4616 22.8136 60.7772 24.7554 60.8593 26.7374H58.182ZM51.4888 8.35095C49.4781 8.41549 46.4455 7.94108 44.9005 9.58082C44.9005 9.58068 41.7099 12.4376 41.7099 12.4376C39.0564 14.8108 39.6471 19.9946 43.1157 21.2935L45.3209 22.1871C46.5635 22.4398 46.7196 24.6215 48.1551 24.0237C49.8621 22.8177 47.3595 20.7195 46.1131 20.2324C46.113 20.2324 43.9077 19.3388 43.9077 19.3388C41.8708 18.5645 41.6242 15.4041 43.1168 14.0089C43.117 14.0089 46.3076 11.1518 46.3076 11.1518C47.3469 9.89044 52.4263 10.6594 53.8224 10.46C55.8555 12.5361 57.52 14.9719 58.7074 17.6243L55.9805 26.7374H21.1282L19.2545 21.7606C20.6052 24.1913 22.0685 24.5577 24.7116 24.4078C26.5872 24.5896 27.7336 22.3366 28.9016 21.3263C31.6144 19.8494 32.9062 19.3923 32.63 15.9451C32.63 14.9248 32.135 13.961 31.3058 13.3665L24.4569 8.45697C23.2628 7.53277 21.7243 7.84294 20.4764 8.48213C29.082 1.25501 42.8061 1.17009 51.4888 8.35095ZM11.427 24.8253L14.0795 24.7209L15.3181 26.7374H11.2719C11.2988 26.097 11.3518 25.4584 11.427 24.8253ZM41.7108 42.2757C41.7108 42.8378 41.2528 43.2951 40.69 43.2951H31.6659C30.0785 43.3336 30.794 40.5382 30.6451 39.6409H41.7108V42.2757ZM68.5598 36.6873C68.7606 37.1588 68.512 37.4689 68.0463 37.5318C59.3774 37.5132 3.96677 37.5318 3.96677 37.5318C3.46241 37.4554 3.28947 37.172 3.45201 36.6882L7.32386 29.161C7.5449 28.7064 8.14767 28.8772 8.55191 28.8466C16.558 28.8382 40.7492 28.8538 49.1329 28.8472C53.1286 28.8514 59.8961 28.8443 63.8558 28.8466C64.1324 28.8286 64.5265 28.8487 64.6538 29.1594C64.6538 29.1593 68.5598 36.6873 68.5598 36.6873Z"
                  fill="#F34429"/>
            <path d="M71.6727 19.5717C71.2509 19.17 70.5834 19.1863 70.1817 19.6082L63.3934 26.7374H62.9679C60.6159 -7.52426 11.515 -7.51062 9.1613 26.7374H8.61659L1.8283 19.6082C0.899879 18.6049 -0.657889 20.0849 0.3009 21.0627C0.300759 21.0627 6.22039 27.2794 6.22039 27.2794C5.55969 27.4318 1.99716 35.1058 1.57605 35.7239C0.629636 37.4293 2.01699 39.7036 3.96663 39.6409H28.536C28.4434 42.1875 28.2983 45.2224 31.666 45.4042C31.6659 45.4042 40.69 45.4042 40.69 45.4042C44.0524 45.2257 43.9156 42.1844 43.8198 39.6409H64.157V68.2667C64.157 68.5855 63.8972 68.8446 63.5777 68.8446C62.9983 68.2891 7.85437 69.9207 7.97529 68.2682C7.97388 68.2667 7.97388 43.5881 7.97388 43.5881C8.00791 42.2294 5.83457 42.213 5.8648 43.5882C5.8648 43.5881 5.8648 68.2667 5.8648 68.2667C5.8648 69.7483 7.07021 70.9537 8.55177 70.9537H63.5777C65.0601 70.9537 66.2661 69.7483 66.2661 68.2667V39.6409H68.0462C69.9999 39.7037 71.3881 37.4216 70.4318 35.716C70.0132 35.1026 66.4168 27.4518 65.7769 27.2929L71.7092 21.0628C72.1108 20.6409 72.0945 19.9734 71.6727 19.5717ZM15.8541 23.5804C15.2437 22.1473 12.9387 22.7258 11.776 22.7009C12.3717 19.8273 13.4926 17.064 15.0582 14.5823C15.3499 14.6779 17.9397 15.9829 18.2001 15.8998C19.2908 15.9393 19.6645 14.3091 18.6349 13.8839C18.635 13.8839 16.2766 12.8184 16.2766 12.8184C16.0671 12.3491 21.9477 10.2214 22.2034 10.0519C22.5451 9.91125 22.928 9.95568 23.2279 10.1709C23.59 10.6328 30.9772 15.1811 30.5208 15.9449C30.917 19.6521 28.5048 17.6429 25.5174 21.9292C25.1179 22.5342 23.6694 22.2291 23.0824 22.299C21.9063 22.4001 21.2626 20.9163 20.7053 20.1323C19.4456 18.1267 16.1836 19.7792 17.0847 21.9836C17.0846 21.9835 18.8745 26.7374 18.8745 26.7374H17.7932L15.8541 23.5804ZM58.182 26.7374L59.9197 20.9298C60.4616 22.8136 60.7772 24.7554 60.8593 26.7374H58.182ZM51.4888 8.35095C49.4781 8.41549 46.4455 7.94108 44.9005 9.58082C44.9005 9.58068 41.7099 12.4376 41.7099 12.4376C39.0564 14.8108 39.6471 19.9946 43.1157 21.2935L45.3209 22.1871C46.5635 22.4398 46.7196 24.6215 48.1551 24.0237C49.8621 22.8177 47.3595 20.7195 46.1131 20.2324C46.113 20.2324 43.9077 19.3388 43.9077 19.3388C41.8708 18.5645 41.6242 15.4041 43.1168 14.0089C43.117 14.0089 46.3076 11.1518 46.3076 11.1518C47.3469 9.89044 52.4263 10.6594 53.8224 10.46C55.8555 12.5361 57.52 14.9719 58.7074 17.6243L55.9805 26.7374H21.1282L19.2545 21.7606C20.6052 24.1913 22.0685 24.5577 24.7116 24.4078C26.5872 24.5896 27.7336 22.3366 28.9016 21.3263C31.6144 19.8494 32.9062 19.3923 32.63 15.9451C32.63 14.9248 32.135 13.961 31.3058 13.3665L24.4569 8.45697C23.2628 7.53277 21.7243 7.84294 20.4764 8.48213C29.082 1.25501 42.8061 1.17009 51.4888 8.35095ZM11.427 24.8253L14.0795 24.7209L15.3181 26.7374H11.2719C11.2988 26.097 11.3518 25.4584 11.427 24.8253ZM41.7108 42.2757C41.7108 42.8378 41.2528 43.2951 40.69 43.2951H31.6659C30.0785 43.3336 30.794 40.5382 30.6451 39.6409H41.7108V42.2757ZM68.5598 36.6873C68.7606 37.1588 68.512 37.4689 68.0463 37.5318C59.3774 37.5132 3.96677 37.5318 3.96677 37.5318C3.46241 37.4554 3.28947 37.172 3.45201 36.6882L7.32386 29.161C7.5449 28.7064 8.14767 28.8772 8.55191 28.8466C16.558 28.8382 40.7492 28.8538 49.1329 28.8472C53.1286 28.8514 59.8961 28.8443 63.8558 28.8466C64.1324 28.8286 64.5265 28.8487 64.6538 29.1594C64.6538 29.1593 68.5598 36.6873 68.5598 36.6873Z"
                  fill="#F34429"/>
            <path d="M12.0466 52.5949C12.0466 53.1774 12.5187 53.6494 13.1011 53.6494H33.8559L31.3535 56.1518C30.6824 56.7773 31.1961 57.9848 32.0993 57.9521C32.6567 58.261 36.7249 53.6003 37.1476 53.3408C37.5554 52.9474 37.5552 52.2407 37.1463 51.8481L32.8449 47.5464C31.8939 46.5677 30.3701 48.0827 31.3537 49.0378C31.3535 49.0378 33.856 51.5403 33.856 51.5403H13.1011C12.5186 51.5403 12.0466 52.0123 12.0466 52.5949Z"
                  fill="#F34429"/>
            <path d="M12.0466 52.5949C12.0466 53.1774 12.5187 53.6494 13.1011 53.6494H33.8559L31.3535 56.1518C30.6824 56.7773 31.1961 57.9848 32.0993 57.9521C32.6567 58.261 36.7249 53.6003 37.1476 53.3408C37.5554 52.9474 37.5552 52.2407 37.1463 51.8481L32.8449 47.5464C31.8939 46.5677 30.3701 48.0827 31.3537 49.0378C31.3535 49.0378 33.856 51.5403 33.856 51.5403H13.1011C12.5186 51.5403 12.0466 52.0123 12.0466 52.5949Z"
                  fill="#F34429"/>
            <path d="M12.2709 60.2962C11.9427 60.6984 11.9837 61.3304 12.3554 61.6908L16.6581 65.9934C17.609 66.9727 19.133 65.4567 18.1493 64.5019C18.1495 64.5019 15.647 61.9997 15.647 61.9997H29.052C29.6344 61.9997 30.1066 61.5277 30.1066 60.9451C30.1066 60.3626 29.6344 59.8906 29.052 59.8906H15.647L18.1495 57.3882C19.1296 56.4359 17.6127 54.9146 16.6581 55.8968C16.5743 55.9922 12.3353 60.1964 12.2709 60.2962Z"
                  fill="#F34429"/>
            <path d="M12.2709 60.2962C11.9427 60.6984 11.9837 61.3304 12.3554 61.6908L16.6581 65.9934C17.609 66.9727 19.133 65.4567 18.1493 64.5019C18.1495 64.5019 15.647 61.9997 15.647 61.9997H29.052C29.6344 61.9997 30.1066 61.5277 30.1066 60.9451C30.1066 60.3626 29.6344 59.8906 29.052 59.8906H15.647L18.1495 57.3882C19.1296 56.4359 17.6127 54.9146 16.6581 55.8968C16.5743 55.9922 12.3353 60.1964 12.2709 60.2962Z"
                  fill="#F34429"/>
            <path d="M36.4017 61.9995H34.1098C33.5274 61.9995 33.0552 61.5275 33.0552 60.945C33.0552 60.3625 33.5274 59.8904 34.1098 59.8904H36.4017C36.984 59.8904 37.4562 60.3625 37.4562 60.945C37.4562 61.5275 36.984 61.9995 36.4017 61.9995Z"
                  fill="#F34429"/>
            <path d="M36.4017 61.9995H34.1098C33.5274 61.9995 33.0552 61.5275 33.0552 60.945C33.0552 60.3625 33.5274 59.8904 34.1098 59.8904H36.4017C36.984 59.8904 37.4562 60.3625 37.4562 60.945C37.4562 61.5275 36.984 61.9995 36.4017 61.9995Z"
                  fill="#F34429"/>
            <path d="M34.3464 61.9995H32.0545C31.4722 61.9995 31 61.5275 31 60.945C31 60.3625 31.4722 59.8904 32.0545 59.8904H34.3464C34.9288 59.8904 35.401 60.3625 35.401 60.945C35.401 61.5275 34.9288 61.9995 34.3464 61.9995Z"
                  fill="#F34429"/>
            <path d="M34.3464 61.9995H32.0545C31.4722 61.9995 31 61.5275 31 60.945C31 60.3625 31.4722 59.8904 32.0545 59.8904H34.3464C34.9288 59.8904 35.401 60.3625 35.401 60.945C35.401 61.5275 34.9288 61.9995 34.3464 61.9995Z"
                  fill="#F34429"/>
            <path d="M32.3464 59.8904H30.0545C29.4722 59.8904 29 60.3624 29 60.945C29 61.5275 29.4722 61.9995 30.0545 61.9995H32.3464C32.9288 61.9995 33.401 61.5275 33.401 60.945C33.401 60.3624 32.9288 59.8904 32.3464 59.8904Z"
                  fill="#F34429"/>
            <path d="M32.3464 59.8904H30.0545C29.4722 59.8904 29 60.3624 29 60.945C29 61.5275 29.4722 61.9995 30.0545 61.9995H32.3464C32.9288 61.9995 33.401 61.5275 33.401 60.945C33.401 60.3624 32.9288 59.8904 32.3464 59.8904Z"
                  fill="#F34429"/>
            <path d="M31.3464 59.8904H29.0545C28.4722 59.8904 28 60.3624 28 60.945C28 61.5275 28.4722 61.9995 29.0545 61.9995H31.3464C31.9288 61.9995 32.401 61.5275 32.401 60.945C32.401 60.3624 31.9288 59.8904 31.3464 59.8904Z"
                  fill="#F34429"/>
            <path d="M31.3464 59.8904H29.0545C28.4722 59.8904 28 60.3624 28 60.945C28 61.5275 28.4722 61.9995 29.0545 61.9995H31.3464C31.9288 61.9995 32.401 61.5275 32.401 60.945C32.401 60.3624 31.9288 59.8904 31.3464 59.8904Z"
                  fill="#F34429"/>
            <path d="M37.9894 22.4052C39.2917 22.4272 39.2917 20.1552 37.9893 20.1774C36.6871 20.1553 36.6871 22.4274 37.9894 22.4052Z"
                  fill="#F34429"/>
            <path d="M37.9894 22.4052C39.2917 22.4272 39.2917 20.1552 37.9893 20.1774C36.6871 20.1553 36.6871 22.4274 37.9894 22.4052Z"
                  fill="#F34429"/>
            <path d="M60.7455 52.8563L57.9857 50.8346C56.701 50.0254 55.0189 49.9966 53.6975 50.739L42.9086 57.4259L42.2158 56.7962C41.7849 56.4047 41.118 56.4361 40.7262 56.8672C40.3344 57.298 40.3661 57.965 40.7971 58.3569L44.922 62.1508C45.4326 62.6331 46.1923 62.7554 46.823 62.464L52.4014 59.7874L51.9994 62.0211C51.8962 62.5942 52.2773 63.1425 52.8505 63.2457C53.4101 63.3505 53.9746 62.9713 54.0752 62.3945L54.747 58.662L60.5201 55.8919C61.7607 55.3939 61.8973 53.5309 60.7455 52.8563ZM46.1741 60.436L44.5212 58.9079L54.7783 52.5506C55.4063 52.2239 56.1696 52.2328 56.7894 52.5728L59.0743 54.2464L46.1741 60.436Z"
                  fill="#F34429"/>
            <path d="M60.7455 52.8563L57.9857 50.8346C56.701 50.0254 55.0189 49.9966 53.6975 50.739L42.9086 57.4259L42.2158 56.7962C41.7849 56.4047 41.118 56.4361 40.7262 56.8672C40.3344 57.298 40.3661 57.965 40.7971 58.3569L44.922 62.1508C45.4326 62.6331 46.1923 62.7554 46.823 62.464L52.4014 59.7874L51.9994 62.0211C51.8962 62.5942 52.2773 63.1425 52.8505 63.2457C53.4101 63.3505 53.9746 62.9713 54.0752 62.3945L54.747 58.662L60.5201 55.8919C61.7607 55.3939 61.8973 53.5309 60.7455 52.8563ZM46.1741 60.436L44.5212 58.9079L54.7783 52.5506C55.4063 52.2239 56.1696 52.2328 56.7894 52.5728L59.0743 54.2464L46.1741 60.436Z"
                  fill="#F34429"/>
        </g>
    </symbol>


    <symbol id="adv-5" viewBox="0 0 72 72" fill="none" xmlns="http://www.w3.org/2000/svg">
        <path d="M61.2 17.55H44.4V16.35C44.393 10.3881 39.5619 5.55708 33.6 5.55005H10.8C4.83809 5.55708 0.00703125 10.3881 0 16.35V30.75C0.00703125 36.712 4.83809 41.543 10.8 41.55H12V51.1501C12 51.6352 12.2924 52.0729 12.7406 52.2586C13.1889 52.4444 13.7051 52.3413 14.0484 51.9985L24.4969 41.55H27.6V42.75C27.607 48.712 32.4381 53.543 38.4 53.55H45.1031L57.9516 66.3985C58.2949 66.7413 58.8111 66.8444 59.2594 66.6586C59.7076 66.4729 60 66.0352 60 65.5501V53.55H61.2C67.1619 53.543 71.993 48.712 72 42.75V28.35C71.993 22.3881 67.1619 17.5571 61.2 17.55ZM24 39.1501C23.6818 39.1501 23.3766 39.2766 23.1516 39.5016L14.4 48.2532V40.3501C14.4 39.6874 13.8627 39.1501 13.2 39.1501H10.8C6.16289 39.1448 2.40527 35.3872 2.4 30.75V16.35C2.40527 11.7129 6.16289 7.95532 10.8 7.95005H33.6C38.2371 7.95532 41.9947 11.7129 42 16.35V17.55H38.4C32.4381 17.5571 27.607 22.3881 27.6 28.35V39.1501H24ZM69.6 42.75C69.5947 47.3872 65.8371 51.1448 61.2 51.1501H58.8C58.1373 51.1501 57.6 51.6874 57.6 52.3501V62.6532L46.4484 51.5016C46.2234 51.2766 45.9182 51.1501 45.6 51.1501H38.4C33.7629 51.1448 30.0053 47.3872 30 42.75V28.35C30.0053 23.7129 33.7629 19.9553 38.4 19.95H61.2C65.8371 19.9553 69.5947 23.7129 69.6 28.35V42.75Z"
              fill="#F34429"/>
        <path d="M61.2 17.55H44.4V16.35C44.393 10.3881 39.5619 5.55708 33.6 5.55005H10.8C4.83809 5.55708 0.00703125 10.3881 0 16.35V30.75C0.00703125 36.712 4.83809 41.543 10.8 41.55H12V51.1501C12 51.6352 12.2924 52.0729 12.7406 52.2586C13.1889 52.4444 13.7051 52.3413 14.0484 51.9985L24.4969 41.55H27.6V42.75C27.607 48.712 32.4381 53.543 38.4 53.55H45.1031L57.9516 66.3985C58.2949 66.7413 58.8111 66.8444 59.2594 66.6586C59.7076 66.4729 60 66.0352 60 65.5501V53.55H61.2C67.1619 53.543 71.993 48.712 72 42.75V28.35C71.993 22.3881 67.1619 17.5571 61.2 17.55ZM24 39.1501C23.6818 39.1501 23.3766 39.2766 23.1516 39.5016L14.4 48.2532V40.3501C14.4 39.6874 13.8627 39.1501 13.2 39.1501H10.8C6.16289 39.1448 2.40527 35.3872 2.4 30.75V16.35C2.40527 11.7129 6.16289 7.95532 10.8 7.95005H33.6C38.2371 7.95532 41.9947 11.7129 42 16.35V17.55H38.4C32.4381 17.5571 27.607 22.3881 27.6 28.35V39.1501H24ZM69.6 42.75C69.5947 47.3872 65.8371 51.1448 61.2 51.1501H58.8C58.1373 51.1501 57.6 51.6874 57.6 52.3501V62.6532L46.4484 51.5016C46.2234 51.2766 45.9182 51.1501 45.6 51.1501H38.4C33.7629 51.1448 30.0053 47.3872 30 42.75V28.35C30.0053 23.7129 33.7629 19.9553 38.4 19.95H61.2C65.8371 19.9553 69.5947 23.7129 69.6 28.35V42.75Z"
              fill="#F34429"/>
        <path d="M63.6 27.15H36C35.3374 27.15 34.8 27.6873 34.8 28.35C34.8 29.0127 35.3374 29.55 36 29.55H63.6C64.2627 29.55 64.8 29.0127 64.8 28.35C64.8 27.6873 64.2627 27.15 63.6 27.15Z"
              fill="#F34429"/>
        <path d="M63.6 27.15H36C35.3374 27.15 34.8 27.6873 34.8 28.35C34.8 29.0127 35.3374 29.55 36 29.55H63.6C64.2627 29.55 64.8 29.0127 64.8 28.35C64.8 27.6873 64.2627 27.15 63.6 27.15Z"
              fill="#F34429"/>
        <path d="M63.6 34.35H36C35.3374 34.35 34.8 34.8873 34.8 35.55C34.8 36.2127 35.3374 36.75 36 36.75H63.6C64.2627 36.75 64.8 36.2127 64.8 35.55C64.8 34.8873 64.2627 34.35 63.6 34.35Z"
              fill="#F34429"/>
        <path d="M63.6 34.35H36C35.3374 34.35 34.8 34.8873 34.8 35.55C34.8 36.2127 35.3374 36.75 36 36.75H63.6C64.2627 36.75 64.8 36.2127 64.8 35.55C64.8 34.8873 64.2627 34.35 63.6 34.35Z"
              fill="#F34429"/>
        <path d="M63.6 41.55H36C35.3374 41.55 34.8 42.0873 34.8 42.75C34.8 43.4127 35.3374 43.95 36 43.95H63.6C64.2627 43.95 64.8 43.4127 64.8 42.75C64.8 42.0873 64.2627 41.55 63.6 41.55Z"
              fill="#F34429"/>
        <path d="M63.6 41.55H36C35.3374 41.55 34.8 42.0873 34.8 42.75C34.8 43.4127 35.3374 43.95 36 43.95H63.6C64.2627 43.95 64.8 43.4127 64.8 42.75C64.8 42.0873 64.2627 41.55 63.6 41.55Z"
              fill="#F34429)"/>
        <path d="M7.2 17.55H32.4C33.0627 17.55 33.6 17.0127 33.6 16.35C33.6 15.6873 33.0627 15.15 32.4 15.15H7.2C6.5373 15.15 6 15.6873 6 16.35C6 17.0127 6.5373 17.55 7.2 17.55Z"
              fill="#F34429"/>
        <path d="M7.2 17.55H32.4C33.0627 17.55 33.6 17.0127 33.6 16.35C33.6 15.6873 33.0627 15.15 32.4 15.15H7.2C6.5373 15.15 6 15.6873 6 16.35C6 17.0127 6.5373 17.55 7.2 17.55Z"
              fill="#F34429"/>
        <path d="M25.2 22.35H7.2C6.5373 22.35 6 22.8873 6 23.55C6 24.2127 6.5373 24.75 7.2 24.75H25.2C25.8627 24.75 26.4 24.2127 26.4 23.55C26.4 22.8873 25.8627 22.35 25.2 22.35Z"
              fill="#F34429"/>
        <path d="M25.2 22.35H7.2C6.5373 22.35 6 22.8873 6 23.55C6 24.2127 6.5373 24.75 7.2 24.75H25.2C25.8627 24.75 26.4 24.2127 26.4 23.55C26.4 22.8873 25.8627 22.35 25.2 22.35Z"
              fill="#F34429"/>
        <path d="M24 29.55H7.2C6.5373 29.55 6 30.0874 6 30.75C6 31.4127 6.5373 31.95 7.2 31.95H24C24.6627 31.95 25.2 31.4127 25.2 30.75C25.2 30.0874 24.6627 29.55 24 29.55Z"
              fill="#F34429"/>
        <path d="M24 29.55H7.2C6.5373 29.55 6 30.0874 6 30.75C6 31.4127 6.5373 31.95 7.2 31.95H24C24.6627 31.95 25.2 31.4127 25.2 30.75C25.2 30.0874 24.6627 29.55 24 29.55Z"
              fill="#F34429"/>
    </symbol>


    <symbol id="adv-6" viewBox="0 0 72 72" fill="none" xmlns="http://www.w3.org/2000/svg">
        <g clip-path="url(#clip0)">
            <path d="M63.0716 22.473C60.931 21.2653 58.1256 22.1677 56.818 24.4852L55.3645 27.0606V12.7664C55.3645 12.3827 55.2028 12.0052 54.9264 11.7394L43.0934 0.395719C42.8315 0.144844 42.4717 0 42.109 0H8.17452C7.38884 0 6.75195 0.637031 6.75195 1.42256V70.5774C6.75195 71.3631 7.38884 72 8.17452 72H39.5774C40.3631 72 41 71.363 41 70.5774C41 69.7919 40.3631 69.1549 39.5774 69.1549H9.59722V2.84512H40.6865V12.7662C40.6865 13.5519 41.3233 14.1888 42.109 14.1888H52.5195V32.1022L44.0648 47.0838C43.9966 47.2047 43.9464 47.3351 43.9159 47.4705L41.6028 57.7444C41.3004 59.0874 42.9793 60.0394 43.9755 59.0833L51.5748 51.7925C51.6749 51.6963 51.7605 51.586 51.8287 51.4651L52.5193 50.2414V69.1547H37.4957C36.71 69.1547 36.0731 69.7918 36.0731 70.5773C36.0731 71.3628 36.71 72 37.4957 72H53.9419C54.7276 72 55.3645 71.363 55.3645 70.5774V45.1997L64.5819 28.8664C65.8897 26.5492 65.2122 23.6811 63.0716 22.473ZM43.5316 4.75706L50.4024 11.3438H43.5316V4.75706ZM62.1041 27.468L49.4539 49.8845L45.4168 53.7577L46.6457 48.2998L55.1909 33.1575L55.1938 33.1526L59.2959 25.8834C59.8327 24.9324 60.8988 24.514 61.6733 24.9508C62.4476 25.3877 62.6408 26.517 62.1041 27.468Z"
                  fill="#F34429"/>
            <path d="M63.0716 22.473C60.931 21.2653 58.1256 22.1677 56.818 24.4852L55.3645 27.0606V12.7664C55.3645 12.3827 55.2028 12.0052 54.9264 11.7394L43.0934 0.395719C42.8315 0.144844 42.4717 0 42.109 0H8.17452C7.38884 0 6.75195 0.637031 6.75195 1.42256V70.5774C6.75195 71.3631 7.38884 72 8.17452 72H39.5774C40.3631 72 41 71.363 41 70.5774C41 69.7919 40.3631 69.1549 39.5774 69.1549H9.59722V2.84512H40.6865V12.7662C40.6865 13.5519 41.3233 14.1888 42.109 14.1888H52.5195V32.1022L44.0648 47.0838C43.9966 47.2047 43.9464 47.3351 43.9159 47.4705L41.6028 57.7444C41.3004 59.0874 42.9793 60.0394 43.9755 59.0833L51.5748 51.7925C51.6749 51.6963 51.7605 51.586 51.8287 51.4651L52.5193 50.2414V69.1547H37.4957C36.71 69.1547 36.0731 69.7918 36.0731 70.5773C36.0731 71.3628 36.71 72 37.4957 72H53.9419C54.7276 72 55.3645 71.363 55.3645 70.5774V45.1997L64.5819 28.8664C65.8897 26.5492 65.2122 23.6811 63.0716 22.473ZM43.5316 4.75706L50.4024 11.3438H43.5316V4.75706ZM62.1041 27.468L49.4539 49.8845L45.4168 53.7577L46.6457 48.2998L55.1909 33.1575L55.1938 33.1526L59.2959 25.8834C59.8327 24.9324 60.8988 24.514 61.6733 24.9508C62.4476 25.3877 62.6408 26.517 62.1041 27.468Z"
                  fill="#F34429"/>
            <path d="M32.8602 18.5107H14.2243C13.4386 18.5107 12.8018 19.1478 12.8018 19.9333C12.8018 20.7188 13.4386 21.3559 14.2243 21.3559H32.8602C33.6459 21.3559 34.2828 20.7188 34.2828 19.9333C34.2828 19.1478 33.6459 18.5107 32.8602 18.5107Z"
                  fill="#F34429"/>
            <path d="M32.8602 18.5107H14.2243C13.4386 18.5107 12.8018 19.1478 12.8018 19.9333C12.8018 20.7188 13.4386 21.3559 14.2243 21.3559H32.8602C33.6459 21.3559 34.2828 20.7188 34.2828 19.9333C34.2828 19.1478 33.6459 18.5107 32.8602 18.5107Z"
                  fill="#F34429"/>
            <path d="M32.8602 27.9827H14.2243C13.4386 27.9827 12.8018 28.6197 12.8018 29.4052C12.8018 30.1909 13.4386 30.8278 14.2243 30.8278H32.8602C33.6459 30.8278 34.2828 30.1908 34.2828 29.4052C34.2828 28.6197 33.6459 27.9827 32.8602 27.9827Z"
                  fill="#F34429"/>
            <path d="M32.8602 27.9827H14.2243C13.4386 27.9827 12.8018 28.6197 12.8018 29.4052C12.8018 30.1909 13.4386 30.8278 14.2243 30.8278H32.8602C33.6459 30.8278 34.2828 30.1908 34.2828 29.4052C34.2828 28.6197 33.6459 27.9827 32.8602 27.9827Z"
                  fill="#F34429"/>
            <path d="M32.8602 37.4549H14.2243C13.4386 37.4549 12.8018 38.0919 12.8018 38.8775C12.8018 39.663 13.4386 40.3 14.2243 40.3H32.8602C33.6459 40.3 34.2828 39.663 34.2828 38.8775C34.2828 38.0919 33.6459 37.4549 32.8602 37.4549Z"
                  fill="#F34429"/>
            <path d="M32.8602 37.4549H14.2243C13.4386 37.4549 12.8018 38.0919 12.8018 38.8775C12.8018 39.663 13.4386 40.3 14.2243 40.3H32.8602C33.6459 40.3 34.2828 39.663 34.2828 38.8775C34.2828 38.0919 33.6459 37.4549 32.8602 37.4549Z"
                  fill="#F34429"/>
            <path d="M32.8602 46.9268H14.2243C13.4386 46.9268 12.8018 47.5638 12.8018 48.3494C12.8018 49.1351 13.4386 49.7719 14.2243 49.7719H32.8602C33.6459 49.7719 34.2828 49.1349 34.2828 48.3494C34.2828 47.5638 33.6459 46.9268 32.8602 46.9268Z"
                  fill="#F34429"/>
            <path d="M32.8602 46.9268H14.2243C13.4386 46.9268 12.8018 47.5638 12.8018 48.3494C12.8018 49.1351 13.4386 49.7719 14.2243 49.7719H32.8602C33.6459 49.7719 34.2828 49.1349 34.2828 48.3494C34.2828 47.5638 33.6459 46.9268 32.8602 46.9268Z"
                  fill="#F34429"/>
            <path d="M32.8602 56.3989H14.2243C13.4386 56.3989 12.8018 57.036 12.8018 57.8215C12.8018 58.6072 13.4386 59.244 14.2243 59.244H32.8602C33.6459 59.244 34.2828 58.607 34.2828 57.8215C34.2828 57.036 33.6459 56.3989 32.8602 56.3989Z"
                  fill="#F34429"/>
            <path d="M32.8602 56.3989H14.2243C13.4386 56.3989 12.8018 57.036 12.8018 57.8215C12.8018 58.6072 13.4386 59.244 14.2243 59.244H32.8602C33.6459 59.244 34.2828 58.607 34.2828 57.8215C34.2828 57.036 33.6459 56.3989 32.8602 56.3989Z"
                  fill="#F34429"/>
            <path d="M39.7476 22.6656C40.6074 22.8049 41.2895 22.0184 41.8903 21.5202C42.6629 20.8795 43.4355 20.2388 44.2079 19.5982C44.3934 19.4444 44.5858 19.2962 44.7655 19.1359C45.2848 18.6727 45.4515 17.9231 45.0849 17.3087C44.7088 16.6786 43.8866 16.4353 43.2293 16.7624C42.9468 16.903 42.7006 17.1521 42.4597 17.3518C41.7457 17.9438 41.0319 18.5358 40.318 19.1279C39.9355 18.5159 39.6056 17.7396 38.8202 17.5883C37.5867 17.3505 36.7496 18.7001 37.3449 19.7392C37.6377 20.2496 38.975 22.5411 39.7476 22.6656Z"
                  fill="#F34429"/>
            <path d="M39.7476 22.6656C40.6074 22.8049 41.2895 22.0184 41.8903 21.5202C42.6629 20.8795 43.4355 20.2388 44.2079 19.5982C44.3934 19.4444 44.5858 19.2962 44.7655 19.1359C45.2848 18.6727 45.4515 17.9231 45.0849 17.3087C44.7088 16.6786 43.8866 16.4353 43.2293 16.7624C42.9468 16.903 42.7006 17.1521 42.4597 17.3518C41.7457 17.9438 41.0319 18.5358 40.318 19.1279C39.9355 18.5159 39.6056 17.7396 38.8202 17.5883C37.5867 17.3505 36.7496 18.7001 37.3449 19.7392C37.6377 20.2496 38.975 22.5411 39.7476 22.6656Z"
                  fill="#F34429"/>
            <path d="M37.3453 29.2229C37.6033 29.6356 38.6053 31.3618 38.9374 31.7176C40.0112 32.8676 41.2168 31.5626 42.0559 30.8666C42.9406 30.133 43.8409 29.4144 44.7116 28.6643C45.2748 28.1792 45.4782 27.4004 45.0552 26.7465C44.5701 25.9965 43.5866 25.9271 42.9179 26.4557C42.0355 27.1532 41.1842 27.8934 40.3182 28.6114C39.9363 28.0003 39.6055 27.2232 38.8204 27.0717C37.6266 26.8418 36.6996 28.1901 37.3453 29.2229Z"
                  fill="#F34429"/>
            <path d="M37.3453 29.2229C37.6033 29.6356 38.6053 31.3618 38.9374 31.7176C40.0112 32.8676 41.2168 31.5626 42.0559 30.8666C42.9406 30.133 43.8409 29.4144 44.7116 28.6643C45.2748 28.1792 45.4782 27.4004 45.0552 26.7465C44.5701 25.9965 43.5866 25.9271 42.9179 26.4557C42.0355 27.1532 41.1842 27.8934 40.3182 28.6114C39.9363 28.0003 39.6055 27.2232 38.8204 27.0717C37.6266 26.8418 36.6996 28.1901 37.3453 29.2229Z"
                  fill="#F34429"/>
            <path d="M37.3451 38.517C37.6032 38.9298 38.6122 40.6863 38.9606 41.0362C40.0257 42.1055 41.1495 40.9124 41.9723 40.2301C42.8762 39.4806 43.7869 38.7385 44.6842 37.9811C45.2308 37.5197 45.4727 36.7963 45.1109 36.134C44.6645 35.3168 43.6264 35.1922 42.9257 35.7433C42.0391 36.4406 41.1865 37.1856 40.3182 37.9056C39.9363 37.2943 39.6056 36.5173 38.8204 36.366C37.6264 36.1361 36.6995 37.4841 37.3451 38.517Z"
                  fill="#F34429"/>
            <path d="M37.3451 38.517C37.6032 38.9298 38.6122 40.6863 38.9606 41.0362C40.0257 42.1055 41.1495 40.9124 41.9723 40.2301C42.8762 39.4806 43.7869 38.7385 44.6842 37.9811C45.2308 37.5197 45.4727 36.7963 45.1109 36.134C44.6645 35.3168 43.6264 35.1922 42.9257 35.7433C42.0391 36.4406 41.1865 37.1856 40.3182 37.9056C39.9363 37.2943 39.6056 36.5173 38.8204 36.366C37.6264 36.1361 36.6995 37.4841 37.3451 38.517Z"
                  fill="#F34429"/>
            <path d="M31.0583 71.9836C31.835 71.9836 32.4646 71.354 32.4646 70.5774C32.4646 69.8007 31.835 69.1711 31.0583 69.1711C30.2817 69.1711 29.6521 69.8007 29.6521 70.5774C29.6521 71.354 30.2817 71.9836 31.0583 71.9836Z"
                  fill="#F34429"/>
            <path d="M31.0583 71.9836C31.835 71.9836 32.4646 71.354 32.4646 70.5774C32.4646 69.8007 31.835 69.1711 31.0583 69.1711C30.2817 69.1711 29.6521 69.8007 29.6521 70.5774C29.6521 71.354 30.2817 71.9836 31.0583 71.9836Z"
                  fill="#F34429"/>
        </g>
    </symbol>

    <symbol id="adv-7" viewBox="0 0 72 72" fill="none" xmlns="http://www.w3.org/2000/svg">
        <path d="M69.4237 14.9513L57.0487 2.57625C56.8342 2.36903 56.5482 2.25222 56.25 2.25H28.125C27.2307 2.25267 26.3738 2.60911 25.7415 3.24147C25.1091 3.87382 24.7527 4.73072 24.75 5.625V12.4313C18.6902 12.7153 12.9727 15.3224 8.78468 19.7113C4.59668 24.1002 2.26007 29.9336 2.26007 36C2.26007 42.0664 4.59668 47.8998 8.78468 52.2887C12.9727 56.6776 18.6902 59.2847 24.75 59.5688V66.375C24.7527 67.2693 25.1091 68.1262 25.7415 68.7585C26.3738 69.3909 27.2307 69.7473 28.125 69.75H66.375C67.2693 69.7473 68.1262 69.3909 68.7585 68.7585C69.3909 68.1262 69.7473 67.2693 69.75 66.375V15.75C69.7478 15.4517 69.631 15.1658 69.4237 14.9513ZM57.375 6.08625L65.9137 14.625H58.5C58.2016 14.625 57.9155 14.5065 57.7045 14.2955C57.4935 14.0845 57.375 13.7984 57.375 13.5V6.08625ZM4.5 36C4.50733 30.5283 6.6102 25.2673 10.3765 21.2981C14.1427 17.3289 19.2862 14.953 24.75 14.6587V35.5387L10.0125 50.2762C6.46483 46.3678 4.49965 41.2784 4.5 36ZM11.5988 51.8625L26.3363 37.125H47.2163C47.0113 41.1561 45.667 45.0464 43.3394 48.344C41.0119 51.6416 37.7965 54.2113 34.0669 55.7545C30.3372 57.2977 26.2463 57.7512 22.2692 57.0623C18.2921 56.3734 14.592 54.5703 11.5988 51.8625ZM67.5 66.375C67.5 66.6734 67.3815 66.9595 67.1705 67.1705C66.9595 67.3815 66.6734 67.5 66.375 67.5H28.125C27.8266 67.5 27.5405 67.3815 27.3295 67.1705C27.1185 66.9595 27 66.6734 27 66.375V59.5688C33.0577 59.2761 38.7712 56.6666 42.959 52.2799C47.1468 47.8931 49.4886 42.0647 49.5 36C49.5 35.7016 49.3815 35.4155 49.1705 35.2045C48.9595 34.9935 48.6734 34.875 48.375 34.875H27V5.625C27 5.32663 27.1185 5.04048 27.3295 4.8295C27.5405 4.61853 27.8266 4.5 28.125 4.5H55.125V13.5C55.1277 14.3943 55.4841 15.2512 56.1165 15.8835C56.7488 16.5159 57.6057 16.8723 58.5 16.875H67.5V66.375Z"
              fill="#F54A16"/>
        <path d="M30.375 7.875C30.0766 7.875 29.7905 7.99353 29.5795 8.20451C29.3685 8.41548 29.25 8.70163 29.25 9V31.5C29.25 31.7984 29.3685 32.0845 29.5795 32.2955C29.7905 32.5065 30.0766 32.625 30.375 32.625H52.875C53.1734 32.625 53.4595 32.5065 53.6705 32.2955C53.8815 32.0845 54 31.7984 54 31.5C53.9932 25.2364 51.5019 19.2312 47.0728 14.8022C42.6438 10.3731 36.6386 7.88185 30.375 7.875ZM31.5 30.375V10.1587C36.7698 10.4417 41.7491 12.6625 45.4808 16.3942C49.2125 20.1259 51.4333 25.1052 51.7163 30.375H31.5Z"
              fill="#F54A16"/>
        <path d="M55.1249 45C53.1224 45 51.1648 45.5938 49.4998 46.7064C47.8347 47.8189 46.537 49.4002 45.7707 51.2503C45.0043 53.1004 44.8038 55.1362 45.1945 57.1003C45.5852 59.0644 46.5495 60.8685 47.9655 62.2845C49.3815 63.7005 51.1856 64.6648 53.1497 65.0555C55.1137 65.4461 57.1495 65.2456 58.9996 64.4793C60.8497 63.7129 62.431 62.4152 63.5436 60.7502C64.6561 59.0851 65.25 57.1275 65.25 55.125C65.2458 52.441 64.1777 49.8681 62.2798 47.9701C60.3819 46.0722 57.809 45.0042 55.1249 45ZM55.1249 63C53.5674 63 52.0449 62.5381 50.7498 61.6728C49.4548 60.8075 48.4454 59.5776 47.8494 58.1386C47.2534 56.6997 47.0974 55.1163 47.4013 53.5887C47.7051 52.0611 48.4551 50.6579 49.5565 49.5565C50.6578 48.4552 52.061 47.7052 53.5886 47.4013C55.1162 47.0975 56.6996 47.2534 58.1386 47.8495C59.5775 48.4455 60.8075 49.4548 61.6728 50.7499C62.5381 52.0449 62.9999 53.5675 62.9999 55.125C62.9976 57.2129 62.1671 59.2145 60.6908 60.6908C59.2145 62.1672 57.2128 62.9976 55.1249 63Z"
              fill="#F54A16"/>
        <path d="M52.875 56.9092L50.2953 54.3296L48.7046 55.9203L52.0796 59.2953C52.2906 59.5062 52.5767 59.6247 52.875 59.6247C53.1733 59.6247 53.4594 59.5062 53.6703 59.2953L60.4203 52.5453L58.8296 50.9546L52.875 56.9092Z"
              fill="#F54A16"/>
        <path d="M56.25 21.375H65.25V23.625H56.25V21.375Z" fill="#F54A16"/>
        <path d="M56.25 28.125H65.25V30.375H56.25V28.125Z" fill="#F54A16"/>
        <path d="M56.25 34.875H65.25V37.125H56.25V34.875Z" fill="#F54A16"/>
    </symbol>

    <symbol id="adv-8" viewBox="0 0 72 72" fill="none" xmlns="http://www.w3.org/2000/svg">
        <path d="M66.6562 11.9531H61.7344V7.03125C61.7344 6.44864 61.2622 5.97656 60.6797 5.97656H55.7578V1.05469C55.7578 0.472078 55.2856 0 54.7031 0H10.9688C10.3863 0 9.91406 0.472078 9.91406 1.05469V48.375H5.34375C4.76128 48.375 4.28906 48.8471 4.28906 49.4297V51.9609C4.28906 56.4196 7.91634 60.0469 12.375 60.0469H15.8906V64.9688C15.8906 65.5514 16.3628 66.0234 16.9453 66.0234H21.8672V70.9453C21.8672 71.5279 22.3394 72 22.9219 72H51C51.5825 72 52.0547 71.5279 52.0547 70.9453C52.0547 70.3627 51.5825 69.8906 51 69.8906H23.9766V66.0234H60.6797C61.2622 66.0234 61.7344 65.5514 61.7344 64.9688V48.375C61.7344 47.7924 61.2622 47.3203 60.6797 47.3203C60.0972 47.3203 59.625 47.7924 59.625 48.375V63.9141H18V60.0469H54.7031C55.2856 60.0469 55.7578 59.5748 55.7578 58.9922V8.08594H59.625V48.375C59.625 48.9576 60.0972 49.4297 60.6797 49.4297C61.2622 49.4297 61.7344 48.9576 61.7344 48.375V14.0625H65.6016V69.8906H48.8672C48.2847 69.8906 47.8125 70.3627 47.8125 70.9453C47.8125 71.5279 48.2847 72 48.8672 72H66.6562C67.2387 72 67.7109 71.5279 67.7109 70.9453V13.0078C67.7109 12.4252 67.2387 11.9531 66.6562 11.9531ZM53.6484 57.9375H47.8125C44.517 57.9375 41.8359 55.2565 41.8359 51.9609V49.4297C41.8359 48.8471 41.3637 48.375 40.7812 48.375H33.4688C32.8863 48.375 32.4141 48.8471 32.4141 49.4297C32.4141 50.0123 32.8863 50.4844 33.4688 50.4844H39.7266V51.9609C39.7266 54.3264 40.7476 56.4576 42.3719 57.9375H12.375C9.07945 57.9375 6.39844 55.2565 6.39844 51.9609V50.4844H34.4453C35.0278 50.4844 35.5 50.0123 35.5 49.4297C35.5 48.8471 35.0278 48.375 34.4453 48.375H12.0234V2.10938H53.6484V57.9375Z"
              fill="#F34429"/>
        <path d="M15.8906 22.5H29.3906C29.9731 22.5 30.4453 22.0279 30.4453 21.4453V7.94531C30.4453 7.3627 29.9731 6.89062 29.3906 6.89062H15.8906C15.3082 6.89062 14.8359 7.3627 14.8359 7.94531V21.4453C14.8359 22.0279 15.3082 22.5 15.8906 22.5ZM16.9453 9H28.3359V20.3906H16.9453V9Z"
              fill="#F54A16"/>
        <path d="M49.7812 18.5625H34.3125C33.73 18.5625 33.2578 19.0346 33.2578 19.6172C33.2578 20.1998 33.73 20.6719 34.3125 20.6719H49.7812C50.3637 20.6719 50.8359 20.1998 50.8359 19.6172C50.8359 19.0346 50.3637 18.5625 49.7812 18.5625Z"
              fill="#F54A16"/>
        <path d="M23.9766 29.1797C23.9766 29.7623 24.4488 30.2344 25.0312 30.2344H40.6406C41.2231 30.2344 41.6953 29.7623 41.6953 29.1797C41.6953 28.5971 41.2231 28.125 40.6406 28.125H25.0312C24.4488 28.125 23.9766 28.5971 23.9766 29.1797Z"
              fill="#F54A16"/>
        <path d="M49.7812 13.6406H34.3125C33.73 13.6406 33.2578 14.1127 33.2578 14.6953C33.2578 15.2779 33.73 15.75 34.3125 15.75H49.7812C50.3637 15.75 50.8359 15.2779 50.8359 14.6953C50.8359 14.1127 50.3637 13.6406 49.7812 13.6406Z"
              fill="#F54A16"/>
        <path d="M49.7812 8.71875H34.3125C33.73 8.71875 33.2578 9.19083 33.2578 9.77344C33.2578 10.356 33.73 10.8281 34.3125 10.8281H49.7812C50.3637 10.8281 50.8359 10.356 50.8359 9.77344C50.8359 9.19083 50.3637 8.71875 49.7812 8.71875Z"
              fill="#F54A16"/>
        <path d="M49.7812 40.6406H15.8906C15.3082 40.6406 14.8359 41.1127 14.8359 41.6953C14.8359 42.2779 15.3082 42.75 15.8906 42.75H49.7812C50.3637 42.75 50.8359 42.2779 50.8359 41.6953C50.8359 41.1127 50.3637 40.6406 49.7812 40.6406Z"
              fill="#F54A16"/>
        <path d="M49.7812 34.3125H31.3594C30.7769 34.3125 30.3047 34.7846 30.3047 35.3672C30.3047 35.9498 30.7769 36.4219 31.3594 36.4219H49.7812C50.3637 36.4219 50.8359 35.9498 50.8359 35.3672C50.8359 34.7846 50.3637 34.3125 49.7812 34.3125Z"
              fill="#F54A16"/>
        <path d="M15.8203 36.4219H26.4375C27.02 36.4219 27.4922 35.9498 27.4922 35.3672C27.4922 34.7846 27.02 34.3125 26.4375 34.3125H15.8203C15.2378 34.3125 14.7656 34.7846 14.7656 35.3672C14.7656 35.9498 15.2378 36.4219 15.8203 36.4219Z"
              fill="#F54A16"/>
    </symbol>

    <symbol id="adv-9" viewBox="0 0 72 72" fill="none" xmlns="http://www.w3.org/2000/svg">
        <g clip-path="url(#clip0)">
            <path d="M37.8129 39.5918H8.93982C8.35735 39.5918 7.88513 40.0639 7.88513 40.6465C7.88513 41.2291 8.35735 41.7012 8.93982 41.7012H37.8128C38.3954 41.7012 38.8675 41.229 38.8675 40.6465C38.8676 40.0639 38.3954 39.5918 37.8129 39.5918Z"
                  fill="#F54A16"/>
            <path d="M37.8129 46.2473H8.93982C8.35735 46.2473 7.88513 46.7194 7.88513 47.302C7.88513 47.8846 8.35735 48.3567 8.93982 48.3567H37.8128C38.3954 48.3567 38.8675 47.8846 38.8675 47.302C38.8676 46.7194 38.3954 46.2473 37.8129 46.2473Z"
                  fill="#F54A16"/>
            <path d="M23.3764 52.9033H8.93982C8.35735 52.9033 7.88513 53.3755 7.88513 53.958C7.88513 54.5406 8.35735 55.0127 8.93982 55.0127H23.3764C23.9588 55.0127 24.4311 54.5406 24.4311 53.958C24.4311 53.3754 23.9588 52.9033 23.3764 52.9033Z"
                  fill="#F54A16"/>
            <path d="M65.5606 26.28H36.6875C36.105 26.28 35.6328 26.7521 35.6328 27.3347C35.6328 27.9173 36.105 28.3894 36.6875 28.3894H65.5606C66.1432 28.3894 66.6153 27.9173 66.6153 27.3347C66.6153 26.7521 66.1432 26.28 65.5606 26.28Z"
                  fill="#F54A16"/>
            <path d="M65.5606 32.9358H51.124C50.5414 32.9358 50.0693 33.4079 50.0693 33.9905C50.0693 34.5731 50.5414 35.0452 51.124 35.0452H65.5606C66.1432 35.0452 66.6153 34.5731 66.6153 33.9905C66.6153 33.4079 66.1432 32.9358 65.5606 32.9358Z"
                  fill="#F54A16"/>
            <path d="M6.53198 8.05347H27.6262C28.2086 8.05347 28.6808 7.58139 28.6808 6.99878C28.6808 6.41617 28.2086 5.94409 27.6262 5.94409H6.53198C5.94951 5.94409 5.47729 6.41617 5.47729 6.99878C5.47729 7.58139 5.94951 8.05347 6.53198 8.05347Z"
                  fill="#F54A16"/>
            <path d="M6.53198 13.3264H17.079C17.6615 13.3264 18.1337 12.8543 18.1337 12.2717C18.1337 11.6891 17.6615 11.217 17.079 11.217H6.53198C5.94951 11.217 5.47729 11.6891 5.47729 12.2717C5.47729 12.8543 5.94951 13.3264 6.53198 13.3264Z"
                  fill="#F54A16"/>
            <path d="M39.9432 31.7283H6.80931C3.05589 31.7283 0.0020752 34.7819 0.0020752 38.5355V55.6493C0.0020752 59.4028 3.05575 62.4565 6.80931 62.4565H7.04711L5.68403 70.0248C5.55522 70.7402 5.89848 71.4529 6.53818 71.798C7.18576 72.1473 7.96862 72.0325 8.48908 71.5382L17.8219 62.679C17.9731 62.5354 18.171 62.4565 18.3794 62.4565H39.9431C43.6967 62.4565 46.7503 59.4028 46.7503 55.6493V38.5355C46.7506 34.7819 43.6968 31.7283 39.9432 31.7283ZM44.6411 55.6493C44.6411 58.2396 42.5335 60.3471 39.9432 60.3471H18.3795C17.6283 60.3471 16.9146 60.6319 16.3697 61.1491L7.99393 69.0998L9.17743 62.5288C9.38233 61.3913 8.5075 60.347 7.35353 60.347H6.80931C4.219 60.347 2.11159 58.2395 2.11159 55.6491V38.5355C2.11159 35.9452 4.219 33.8376 6.80931 33.8376H39.9432C42.5335 33.8376 44.6411 35.9452 44.6411 38.5355V55.6493Z"
                  fill="#F54A16"/>
            <path d="M4.13942 18.7608H12.006C12.0222 18.7608 12.0372 18.7695 12.0452 18.7833L15.4052 24.5841C15.755 25.1883 16.381 25.549 17.0792 25.549C17.7775 25.549 18.4033 25.1883 18.7533 24.5841L22.1131 18.7834C22.1213 18.7694 22.1363 18.7608 22.1525 18.7608H30.0189C32.2703 18.7608 34.1018 16.9291 34.1018 14.6777V4.08291C34.1017 1.83164 32.2702 0 30.0188 0H4.13942C1.88816 0 0.0565186 1.83164 0.0565186 4.08291V4.52855C0.0565186 5.11116 0.528737 5.58323 1.11121 5.58323C1.69367 5.58323 2.16589 5.11116 2.16589 4.52855V4.08291C2.16603 2.99461 3.05127 2.10938 4.13942 2.10938H30.0188C31.1069 2.10938 31.9923 2.99461 31.9923 4.08277V14.6776C31.9923 15.7658 31.1069 16.6511 30.0188 16.6511H22.1524C21.3862 16.6511 20.6717 17.063 20.2877 17.7259L17.079 23.2654L13.8705 17.7259C13.4865 17.063 12.7721 16.6511 12.0058 16.6511H4.13928C3.05113 16.6511 2.16589 15.7658 2.16589 14.6776V4.55469C2.16589 3.97208 1.69367 3.5 1.11121 3.5C0.528737 3.5 0.0565186 3.97208 0.0565186 4.55469V14.6777C0.0565186 16.9291 1.88816 18.7608 4.13942 18.7608Z"
                  fill="#F54A16"/>
            <path d="M65.835 19.7937H36.413C33.0148 19.7937 30.2502 22.5584 30.2502 25.9564V27.8529C30.2502 28.4355 30.7225 28.9076 31.3049 28.9076C31.8874 28.9076 32.3596 28.4355 32.3596 27.8529V25.9564C32.3596 23.7214 34.1779 21.9031 36.4129 21.9031H65.835C68.0701 21.9031 69.8884 23.7214 69.8884 25.9564V40.954C69.8884 43.1891 68.0701 45.0073 65.835 45.0073H65.3516C64.2514 45.0073 63.4212 46.0028 63.6158 47.0837L64.6027 52.5637L57.427 45.7521C56.9213 45.2718 56.2586 45.0073 55.5609 45.0073H50.6262C50.0436 45.0073 49.5716 45.4794 49.5716 46.062C49.5716 46.6446 50.0436 47.1167 50.6262 47.1167H55.5609C55.7156 47.1167 55.8626 47.1754 55.9746 47.2818L64.2618 55.1486C64.7658 55.6269 65.5174 55.7293 66.1318 55.3974C66.745 55.0665 67.0737 54.3835 66.9501 53.6981L65.7649 47.1168H65.8348C69.233 47.1168 71.9976 44.3522 71.9976 40.9541V25.9564C71.9977 22.5582 69.2332 19.7937 65.835 19.7937Z"
                  fill="#F54A16"/>
        </g>
        <defs>
            <clipPath id="clip0">
                <rect width="72" height="72" fill="white"/>
            </clipPath>
        </defs>
    </symbol>

    <symbol id='arrow-right' viewBox="0 0 34 77" fill="none" xmlns="http://www.w3.org/2000/svg">
        <g clip-path="url(#clip0)">
            <mask id="path-1-inside-1" fill="white">
                <path d="M-3.46006 0.449416C1.32795 0.449415 6.06907 1.40207 10.4926 3.253C14.9162 5.10393 18.9355 7.81688 22.3211 11.2369C25.7068 14.657 28.3924 18.7172 30.2247 23.1858C32.057 27.6543 33 32.4436 33 37.2803C33 42.117 32.057 46.9064 30.2247 51.3749C28.3924 55.8435 25.7068 59.9037 22.3211 63.3237C18.9355 66.7438 14.9162 69.4568 10.4926 71.3077C6.06907 73.1586 1.32795 74.1113 -3.46006 74.1113L-3.46006 37.2803L-3.46006 0.449416Z"/>
            </mask>
            <path d="M-3.46006 0.449416C1.32795 0.449415 6.06907 1.40207 10.4926 3.253C14.9162 5.10393 18.9355 7.81688 22.3211 11.2369C25.7068 14.657 28.3924 18.7172 30.2247 23.1858C32.057 27.6543 33 32.4436 33 37.2803C33 42.117 32.057 46.9064 30.2247 51.3749C28.3924 55.8435 25.7068 59.9037 22.3211 63.3237C18.9355 66.7438 14.9162 69.4568 10.4926 71.3077C6.06907 73.1586 1.32795 74.1113 -3.46006 74.1113L-3.46006 37.2803L-3.46006 0.449416Z"
                  stroke="#F54A16" stroke-width="6" mask="url(#path-1-inside-1)"/>
        </g>
        <defs>
            <clipPath id="clip0">
                <rect width="77" height="33" fill="white" transform="translate(0 77) rotate(-90)"/>
            </clipPath>
        </defs>
    </symbol>

    <symbol id="arrow-left">
        <g clip-path="url(#clip0)">
            <path d="M-3.46006 0.449416C1.32795 0.449415 6.06907 1.40208 10.4926 3.253C14.9162 5.10393 18.9355 7.81688 22.3211 11.2369C25.7068 14.657 28.3924 18.7172 30.2247 23.1858C32.057 27.6543 33 32.4436 33 37.2803C33 42.117 32.057 46.9064 30.2247 51.3749C28.3924 55.8435 25.7068 59.9037 22.3211 63.3237C18.9355 66.7438 14.9162 69.4568 10.4926 71.3077C6.06907 73.1586 1.32795 74.1113 -3.46006 74.1113L-3.46006 37.2803L-3.46006 0.449416Z"
                  stroke="#F54A16" stroke-width="6" mask="url(#path-1-inside-1)"/>
            <path d="M15.8546 37.7804L15.8546 37.7804L5.6959 47.9391L5.69592 47.9392L5.69279 47.9422C5.25717 48.3629 4.563 48.3508 4.14228 47.9152C3.73185 47.4903 3.73183 46.8166 4.14229 46.3917L4.14226 46.3916L4.14532 46.3886L13.5288 37.0051L4.14532 27.6217L4.14531 27.6217C3.71719 27.1935 3.71719 26.4993 4.14531 26.0711L4.14535 26.0711C4.57357 25.643 5.26769 25.643 5.69588 26.0711L5.6959 26.0711L15.8546 36.2298L15.8547 36.2299C16.2827 36.6581 16.2828 37.3522 15.8546 37.7804Z"
                  fill="#F54A16" stroke="#F54A16" stroke-width="0.5"/>
        </g>
    </symbol>

    <symbol id="arrow-bot" viewBox="0 0 20 11" fill="none" xmlns="http://www.w3.org/2000/svg">
        <path d="M9.33606 9.99501L9.33604 9.995L1.02435 2.28049L1.02433 2.28052L1.02119 2.27751C0.650122 1.9209 0.661678 1.34533 1.0446 1.00208C1.40798 0.676337 1.97734 0.67632 2.3407 1.0021L2.34072 1.00207L2.34388 1.005L9.99581 8.10715L17.6477 1.005L17.6477 1.00499C18.0141 0.665004 18.6009 0.665004 18.9672 1.00499L18.9673 1.00503C19.3442 1.35499 19.3442 1.93054 18.9673 2.28048L18.9673 2.28049L10.6556 9.995L10.6555 9.99502C10.2892 10.335 9.70242 10.335 9.33606 9.99501Z"
              fill="#8C8B8B" stroke="#8C8B8B" stroke-width="0.5"/>
    </symbol>

    <symbol id="play">
        <svg viewBox="0 0 50 50" xmlns="http://www.w3.org/2000/svg">
            <path d="M24.9999 0C11.1929 0 0 11.1929 0 24.9999C0 38.807 11.1929 49.9999 24.9999 49.9999C38.807 49.9999 49.9999 38.807 49.9999 24.9999C49.9852 11.199 38.801 0.0147531 24.9999 0ZM35.5284 25.7965C35.3553 26.1437 35.074 26.4251 34.7267 26.5982V26.6071L20.441 33.75C19.5588 34.1908 18.4863 33.8331 18.0454 32.9508C17.92 32.7 17.8555 32.4231 17.8571 32.1428V17.8572C17.8566 16.8709 18.6557 16.0711 19.642 16.0706C19.9194 16.0705 20.193 16.1349 20.441 16.2589L34.7267 23.4018C35.6094 23.8417 35.9684 24.9138 35.5284 25.7965Z"
                  fill="#F54919"/>
        </svg>
    </symbol>

    <symbol id="tel-2" viewBox="0 0 40 40" fill="none" xmlns="http://www.w3.org/2000/svg">
        <g clip-path="url(#clip0)">
            <path d="M17.5277 11.7582C17.6564 12.7368 17.8964 13.7021 18.2404 14.6248C18.623 15.6487 18.3764 16.8127 17.6064 17.5934L16.6111 18.5914C17.9745 20.832 19.8551 22.7166 22.0911 24.0839L23.0884 23.0846C23.8657 22.3153 25.0284 22.0666 26.0497 22.4512C26.973 22.7965 27.9357 23.0372 28.9183 23.1665C30.3076 23.3632 31.3649 24.5632 31.3323 25.9718L31.3323 29.1897C31.3323 29.2737 31.3283 29.3577 31.3202 29.4404C31.2536 30.1883 30.8989 30.865 30.3236 31.3464C29.747 31.8277 29.0183 32.0556 28.261 31.9871C24.8644 31.6257 21.5537 30.4511 18.6918 28.5937C16.0405 26.9058 13.7485 24.6098 12.0666 21.9578C10.2173 19.0999 9.04457 15.7986 8.6759 12.3972C8.66793 12.3106 8.66457 12.2238 8.66457 12.1346C8.66723 11.3832 8.96191 10.6786 9.49589 10.1493C10.0279 9.61997 10.7345 9.3306 11.4819 9.33326L14.6858 9.33326C16.1078 9.30224 17.3284 10.3409 17.5277 11.7582ZM14.6918 10.6655L11.4778 10.6655C11.0845 10.6642 10.7138 10.8162 10.4338 11.0942C10.1539 11.3721 9.99916 11.7428 9.99784 12.1355C9.99784 12.1835 9.99987 12.2315 10.0025 12.2662C10.3472 15.4475 11.4485 18.5474 13.1891 21.2374C14.7698 23.73 16.9204 25.8847 19.4117 27.4713C22.1037 29.2187 25.2116 30.3213 28.3903 30.66C28.7823 30.696 29.165 30.576 29.4669 30.3233C29.7696 30.07 29.9556 29.714 29.9909 29.3194C29.9949 29.276 29.9975 29.2327 29.9975 29.1894L29.9975 25.9647C29.9975 25.9607 29.9975 25.9553 29.9975 25.9507C29.9975 25.2174 29.4549 24.5894 28.7349 24.4861C27.6589 24.344 26.5976 24.0794 25.5789 23.6981C25.0423 23.4968 24.4323 23.6268 24.0276 24.0281L22.6676 25.3901C22.4556 25.6035 22.1269 25.6474 21.8656 25.4988C19.0823 23.9128 16.7749 21.6008 15.193 18.8128C15.0457 18.5521 15.089 18.2249 15.301 18.0128L16.6576 16.6529C17.061 16.2436 17.1929 15.6322 16.9889 15.0908C16.6096 14.0729 16.3456 13.0095 16.2042 11.9369C16.0996 11.1935 15.4563 10.6469 14.7076 10.6656C14.7031 10.6655 14.6971 10.6655 14.6918 10.6655Z"
                  fill="#353549"/>
            <path d="M19.9998 0.000976562C31.0277 0.000976562 39.9996 8.9729 39.9996 20.0007C39.9996 23.8147 38.9236 27.512 36.8843 30.718L39.959 39.1045C40.0476 39.3445 39.9903 39.6145 39.8116 39.7979C39.6836 39.9299 39.5103 40.0005 39.3329 40.0005C39.2622 40.0005 39.1909 39.9892 39.1222 39.9665L30.423 37.0673C27.2857 38.9865 23.6891 40.0006 19.9997 40.0006C8.9719 40.0006 -3.05176e-05 31.0287 -3.05176e-05 20.0008C-3.05176e-05 8.97298 8.97197 0.000976562 19.9998 0.000976562ZM19.9992 38.6672C23.5418 38.6672 26.9931 37.6658 29.9791 35.7719C30.087 35.7039 30.2111 35.6685 30.3364 35.6685C30.4077 35.6685 30.4784 35.6799 30.5471 35.7032L38.2304 38.2639L35.5171 30.864C35.4444 30.6653 35.4697 30.444 35.5864 30.2673C37.601 27.216 38.6656 23.6661 38.6656 20.0008C38.6656 9.70829 30.2917 1.3344 19.9992 1.3344C9.70665 1.3344 1.33276 9.70829 1.33276 20.0008C1.33276 30.2934 9.70665 38.6672 19.9992 38.6672Z"
                  fill="#353549"/>
        </g>
        <defs>
            <clipPath id="clip0">
                <rect width="40" height="40" fill="white" transform="matrix(-1 0 0 1 40 0)"/>
            </clipPath>
        </defs>
    </symbol>

    <symbol id="mark" viewBox="0 0 40 40" fill="none" xmlns="http://www.w3.org/2000/svg">
        <path d="M24.6178 11.5688C24.6177 10.6556 24.3468 9.76281 23.8393 9.0035C23.3318 8.24419 22.6106 7.65241 21.7667 7.30299C20.9229 6.95358 19.9945 6.86222 19.0987 7.04047C18.203 7.21872 17.3803 7.65857 16.7345 8.30441C16.0888 8.95025 15.649 9.77306 15.4709 10.6688C15.2928 11.5646 15.3842 12.493 15.7338 13.3368C16.0833 14.1805 16.6752 14.9017 17.4346 15.4091C18.1939 15.9165 19.0867 16.1873 20 16.1873C21.2244 16.1858 22.3982 15.6987 23.2639 14.8329C24.1296 13.9671 24.6165 12.7932 24.6178 11.5688ZM16.476 11.5688C16.4761 10.8719 16.6829 10.1906 17.0702 9.61115C17.4575 9.03171 18.0079 8.58012 18.6518 8.31349C19.2958 8.04685 20.0044 7.97715 20.6879 8.1132C21.3715 8.24925 21.9993 8.58493 22.4921 9.07781C22.9849 9.57068 23.3205 10.1986 23.4564 10.8822C23.5923 11.5658 23.5225 12.2743 23.2558 12.9182C22.989 13.5621 22.5373 14.1125 21.9578 14.4997C21.3783 14.8869 20.697 15.0935 20 15.0935C19.0656 15.0925 18.1698 14.7207 17.5091 14.06C16.8484 13.3992 16.4769 12.5033 16.476 11.5688Z"
              fill="#353549"/>
        <path d="M38.54 37.834L34.0819 26.1465C34.0423 26.043 33.9723 25.954 33.8811 25.8912C33.7899 25.8284 33.6817 25.7947 33.5709 25.7946H25.1334C25.185 25.7106 25.2362 25.629 25.2878 25.5446C28.5344 20.1696 30.1681 15.4678 30.1447 11.5715C30.1451 8.8809 29.0767 6.3003 27.1745 4.39742C25.2723 2.49454 22.692 1.42526 20.0014 1.4248C17.3108 1.42435 14.7302 2.49276 12.8273 4.39499C10.9244 6.29722 9.85514 8.87746 9.85468 11.5681C9.83125 15.4678 11.465 20.1703 14.7116 25.5446C14.7631 25.63 14.8144 25.7115 14.8659 25.7946H6.42843C6.31766 25.7947 6.20951 25.8284 6.11828 25.8912C6.02705 25.954 5.95704 26.043 5.9175 26.1465L1.46 37.834C1.42824 37.9168 1.41711 38.0061 1.42759 38.0942C1.43807 38.1823 1.46983 38.2664 1.52014 38.3395C1.57044 38.4125 1.63777 38.4722 1.71632 38.5134C1.79486 38.5546 1.88225 38.576 1.97094 38.5759H38.0291C38.1177 38.576 38.2051 38.5546 38.2837 38.5134C38.3622 38.4722 38.4296 38.4125 38.4799 38.3395C38.5302 38.2664 38.5619 38.1823 38.5724 38.0942C38.5829 38.0061 38.5718 37.9168 38.54 37.834ZM10.9487 11.569C10.949 10.3804 11.1833 9.20345 11.6383 8.10538C12.0934 7.00731 12.7603 6.00962 13.6009 5.16928C14.4415 4.32894 15.4395 3.6624 16.5377 3.20772C17.6359 2.75304 18.8129 2.51913 20.0016 2.51934C21.1902 2.51954 22.3671 2.75386 23.4652 3.20892C24.5633 3.66398 25.561 4.33086 26.4013 5.17149C27.2416 6.01212 27.9082 7.01004 28.3629 8.10827C28.8175 9.20649 29.0514 10.3835 29.0512 11.5721C29.0981 19.3403 21.8356 28.9212 20 31.2187C18.1644 28.9221 10.9016 19.3437 10.9487 11.569ZM19.5834 32.4375C19.6348 32.4978 19.6986 32.5463 19.7705 32.5795C19.8425 32.6128 19.9208 32.63 20 32.63C20.0792 32.63 20.1575 32.6128 20.2295 32.5795C20.3014 32.5463 20.3652 32.4978 20.4166 32.4375C21.8685 30.6687 23.2146 28.8155 24.4478 26.8878H33.1937L33.8937 28.7237L16.8028 34.8021L10.7109 26.8868H15.5516C16.7849 28.8149 18.1312 30.6684 19.5834 32.4375ZM16.7837 35.9687H16.7869L26.9828 32.3437L30.9375 37.4821H12.5312L16.7837 35.9687ZM6.80562 26.8868H9.33062L15.7187 35.1875L9.26781 37.4818H2.76469L6.80562 26.8868ZM32.3191 37.4821L28.0662 31.9565L34.285 29.745L37.2359 37.4821H32.3191Z"
              fill="#353549"/>
    </symbol>

    <symbol id="popup-close" viewBox="0 0 17 17" fill="none" xmlns="http://www.w3.org/2000/svg">
        <g clip-path="url(#clip0)">
            <path d="M10.0575 8.51393L16.6769 1.89427C17.1077 1.46369 17.1077 0.767495 16.6769 0.336913C16.2464 -0.0936684 15.5502 -0.0936684 15.1196 0.336913L8.49992 6.95658L1.88044 0.336913C1.44966 -0.0936684 0.75367 -0.0936684 0.323088 0.336913C-0.107696 0.767495 -0.107696 1.46369 0.323088 1.89427L6.94256 8.51393L0.323088 15.1336C-0.107696 15.5642 -0.107696 16.2604 0.323088 16.691C0.537673 16.9057 0.819821 17.0136 1.10177 17.0136C1.38371 17.0136 1.66566 16.9057 1.88044 16.691L8.49992 10.0713L15.1196 16.691C15.3344 16.9057 15.6163 17.0136 15.8983 17.0136C16.1802 17.0136 16.4622 16.9057 16.6769 16.691C17.1077 16.2604 17.1077 15.5642 16.6769 15.1336L10.0575 8.51393Z"
                  fill="#353549"/>
        </g>
        <defs>
            <clipPath id="clip0">
                <rect width="17" height="17" fill="white"/>
            </clipPath>
        </defs>
    </symbol>

</svg>

